<svg xmlns="http://www.w3.org/2000/svg" viewBox="0 0 893.82 740.97"><defs><style>.cls-1{fill:#ced1f2;}.cls-2{fill:#04043a;}.cls-3{fill:#a9aad2;}.cls-4{fill:#0a205e;}.cls-5{fill:#26669b;}</style></defs><title>Capa 1</title><g id="Capa_2" data-name="Capa 2"><g id="Capa_1-2" data-name="Capa 1"><circle class="cls-1" cx="401.54" cy="324.63" r="324.21"/><path class="cls-2" d="M230.34,49.36c.6.38,2.07,1,1,1.5-7.9,3.59-13.33,10.91-21.44,14.07-2.45.95-3.13,3-4.23,5-.8,1.5-.59,6.49-4.81,2.58-.83-.77-2.48.37-2.74,1.43-.41,1.63-2.49,2.72-1.63,4.61.22.49,2.43.07.92,1.53-.59.57-1.64,1.44-2.8.81-2.27-1.26-3.61-.5-4.43,1.85-1.94,5.53-6.75,8.41-11.13,11.56-2.5,1.79-.67-1.36-1.48-1.67l-.09.1c3.16,0,2.63-2.27,2.53-4.25,1.19-4.44,5.56-5.91,8.44-8.68A191.09,191.09,0,0,1,228,50.23,18.28,18.28,0,0,1,230.34,49.36Z"/><path class="cls-2" d="M303.26,16.21c0,1.87-1.68,1.9-2.8,2.22-13.73,3.9-26.36,10.45-39.29,16.28-3.11,1.4-4.91,4.65-8.34,5.69-5.48,1.66-11.25,2.71-15.49,7.24a2.54,2.54,0,0,1-3.81-.84c14.07-9.71,30-16,45.2-23.37C286.31,19.77,295,18.54,303.26,16.21Z"/><path class="cls-2" d="M426.62.44c-.27,2.52-2.41,2.4-3.91,2.24-18.28-2-36.49-1.19-54.71,1-3.89.46-7.91,1-11.86,0,5.31-3.45,11.43-1.85,17.13-2.46C391-.71,408.82.16,426.62.44Z"/><path class="cls-2" d="M143.63,131.7c-2.87,3.41-4.45,7.6-6.78,11.28-3.77,5.93-8.47,11.28-12.88,16.78-.32.39-1.56,0-2.37,0,1.77-7.47,7.53-12.45,11.55-18.5,2.36-3.58,5.11-6.9,7.68-10.33.87.4,2.61-2,2.73.85Z"/><path class="cls-2" d="M557.91,38.78c-2.73-.29-2.64,4.25-6.06,3.26-5.6-1.61-10-5.23-14.82-8.15-.67-.41-1.31-1.24-.48-2s1.39-.14,2.14.31c1.32.8,3.37,3.14,3.25-1Z"/><path class="cls-2" d="M121.61,161.29c-3.4,10.26-9.1,19.3-14.87,28.32C108.91,178.7,115.37,170.05,121.61,161.29Z"/><path class="cls-2" d="M105.57,191.44c.74.1,1.48.59,1.21,1.23-4,9.71-6.62,20-13.13,28.57A117,117,0,0,1,105.57,191.44Z"/><path class="cls-2" d="M92.68,224.59c.38,2.63.48,5.26-.91,7.63-4,6.91-3.75,15.14-6.83,22.38-.82,1.94-2,3.61-2.79,5.53,1.23-11.83,6.61-22.55,9.15-34C91.46,225.39,91.43,224.36,92.68,224.59Z"/><path class="cls-2" d="M334.29,7.22c.44.21,1.09.32,1.27.66.54,1.1-.57.81-1,.84A31.83,31.83,0,0,0,324.41,11c-.84.37-1.92.67-1.27,2a.92.92,0,0,0-1.4.48h0a4.36,4.36,0,0,0-4.44-.09,2.82,2.82,0,0,1-.46.38l-2.13,1.45c-.05-1.42-1.58-1.24-2.2-2l2-.05c2.28,1.17,2.58,0,2.26-1.91C322.41,9,328.47,8.61,334.29,7.22Z"/><path class="cls-2" d="M632,95.69c-2.33-4.71-7.1-7.19-10.2-11.18-.32-.29-.64-.58-1-.88l-.08.15c6.92,3.21,10.46,10.16,16.19,14.68,1.89,1.49,3.14,3.72,5.42,4.77h0c-3.43.93-4-2.56-5.93-3.91C634.85,98.22,633.43,96.91,632,95.69Z"/><path class="cls-2" d="M76,314c.28,5.44.71,10.88.74,16.32,0,1.69,1,4.15-1.77,5q-.06-7.81-.14-15.64c2.13-.95,2-2,.11-3.07Z"/><path class="cls-2" d="M727.44,307.06c-1-6.15-2.68-12.24-1.52-18.56.54,6.12,1.07,12.23,1.63,18.35,0,.12.22.22.34.34Z"/><path class="cls-2" d="M462.7,5.07c-3.16,3.46-6.66.16-10,.43-1.33.11-2.75-.76-4.35-1.26l2.7-.76Z"/><path class="cls-2" d="M710.61,221.69c-2.79-4.43-5.19-9-4.85-14.47A47.25,47.25,0,0,1,710.61,221.69Z"/><path class="cls-2" d="M487.56,11.63c-4.56.75-8.58-2-13-2.06l-.27-.22c.56-.41.34-.86.08-1.32C478.62,9.75,483.64,8.65,487.56,11.63Z"/><path class="cls-2" d="M575.42,50.5c-3.8-1.81-7.77-3.35-10.49-6.82C569,45.09,572.69,47,575.42,50.5Z"/><path class="cls-2" d="M77,292l.49-.06c.26,4.63,1.74,9.38-1.5,13.62C75.06,300.91,76,296.43,77,292Z"/><path class="cls-2" d="M75.18,347.69l.84-.39c1.64,5.39,3.13,10.79.67,16.35Q75.94,355.67,75.18,347.69Z"/><path class="cls-2" d="M81.69,261.68a17.61,17.61,0,0,1-2,13.21C78.68,270.23,80.72,266,81.69,261.68Z"/><path class="cls-2" d="M177.6,92.67c-2.83,1.23-3.72,5.34-7.55,5.08L177.53,90c0,.94,0,1.87,0,2.81Z"/><path class="cls-2" d="M728.71,346.37c-.24-5.48.66-11-.22-16.46A31,31,0,0,1,728.71,346.37Z"/><path class="cls-2" d="M643,107.52c.27-1.51-2.13-2.6-.66-4.29h0c-.06,1.48,1.37,2,2,3,1.48,2.58-.85.86-1.34,1.2Z"/><path class="cls-2" d="M516.78,20.93c-.74,1.24-1.59.58-2.42.15Z"/><path class="cls-2" d="M93.71,221.13c.09,1.34.64,2.83-1.11,3.61C91.92,223.22,92.82,222.17,93.71,221.13Z"/><path class="cls-2" d="M646.53,109.38l-.27-.85c-.09.13-.26.27-.25.39a5.38,5.38,0,0,0,.25.87Z"/><path class="cls-2" d="M577.37,51.23l0,.82c0-.27.09-.54.14-.81Z"/><path class="cls-3" d="M666.74,131.75l.21-.38-.24.34Z"/><path class="cls-2" d="M493,111.68c5.55-1.17,6.35,5,10.13,6.66.67.3,1.06,1.51,2.23,1.53.9,0,1.73.45,1.51,1.51-.36,1.75-1.25,1-2.07.31-.66-.52-1.69,0-1.45.33,2,3.18-.35,7.37,2.24,10.12.91,1,1.9,4.2,3.28,2.6,1.93-2.2,6.77-2,5.87-6.69-.36-1.86-.12-1.9,3.22-2.39,1.17-.17,2.83-1.27,2.59,1.28-.13,1.42,1.17,3,.9,3.68-1.75,4.69,1.73,7.25,3.75,10.41a3.91,3.91,0,0,1-.11,3.84c-3.33,6.66.79,10.61,5.05,14.46,1.44,1.3,3.17,2.72,5,3.09,3.71.75,5.54,2.8,6.67,6.25a5.68,5.68,0,0,0,5.12,4.31c4.66.7,5.62,4.53,2.87,8.82-.46.71-1.31,1.51-.43,2,3,1.85,2.25,2.81.21,5.34-1.45,1.8,1.93,4.83,3.72,5.8,3.37,1.84,4.08,3.95,4.27,7.57.27,4.95,2.38,9.84-2.54,13.9-1.23,1,.14,3,.75,4.21.83,1.6,1.66.22,2.6-.51,3.55-2.74,4.77-2.27,5.84,1.85.55,2.15,1.44,4.26,4,4.62,2.92.41,1.92-3,3.72-4.14,2.39,1.65,2.47,4.47,3.34,6.87.36,1,.77,2.09,2,1.84s1.74-1.33,1.34-2.71c-.62-2.13-1.09-4.07,1.71-5.37,1.31-.61.41-1.72-.55-2.7-1.88-1.9-1.91-4.24.16-6,1.82-1.56,3.53-1.22,4.76,1.13.56,1.09,2.11,1.06,2.23-.09.22-2.18,3.21-3.22,2.13-5.76l-.1.06c.82.1,1-.49,1.1-1.08l-.07.08c2.81,1,5.63,1.88,8.7,1.16.61-.14,1.37.32,2,.14a6.28,6.28,0,0,1,7.6,3.11c.94,1.82-1.27,4.68-2.88,6.13-2.57,2.33-2.43,3.59,0,5.79,2.94,2.64,5.17,5.61,4.92,10.26-.22,4.18,2.59,6.48,6.72,8.41,3.06,1.43,5.81.4,8.5,1.36,1.4.5,3.88-.75,3.63,2.64-.09,1.13,2.4,1.77,3.77,1.78,6,0,3.8,2.25,1.55,4.92-1.71,2-2.55,4.93-6.29,2.58-1.39-.87-2.73.74-2.25,2.67,1,4.15,2.56,8.42-4.08,9.21-1.12.13-.44,1.13-.33,1.93.28,2.1,1.32,4.18-.3,6.78,5.76-.81,4.87-7.5,9.42-8.69,1.11,1.94.57,5.39,4.29,4.77h0c.6,6.84,0,13.36-3.15,19.73-1.11,2.22-2.15,5.34-.94,8.27.94,2.26-.42,4.65-1.43,5.84-1.48,1.75-2.24-1.62-4.22-2,.39,1.66-3.13,4,2,4.47,3.12.28,1.52,3.92,2.09,6.39-2.32-.44-3.53-2.8-5.6-2.23-2.73.75-2.09-2.34-3.65-2.89-.81,1.21-1.57,2.49-2.47,3.66-.56.73-1.92.95-2.07.19-1.56-7.66-4.22.7-6.23-.37-.09-.05-.53,2.16-1.92,1.29a1.69,1.69,0,0,1-.52-2.56c1.28-1.86.56-3.48-.78-4.92-1.61-1.73-2.92-.32-4.35.43s-3.08,1-4.32-.79c-.69-1-1.46-2.48-3.12-1.75s-1.75,2.43-2,3.79c-.53,3,3.6,6.88-1.82,8.89a9,9,0,0,1,1.2,2c.33,1.08.57,2.91-.38,3.16-8.74,2.28-4.42,9.47-5.22,14.47-.39,2.49.71,4.85-2.76,5.75a2.16,2.16,0,0,0-1.54,2.76,3.21,3.21,0,0,0,4.2,2.37l-.08-.08c.12,3.06.18,6.12.39,9.17.19,2.58,1,5-3,5.77-1.6.3-2.68,3,0,4.46.63.36,2.35.38,1.9.82-3.42,3.23-.56,5.76.48,8.62a2.21,2.21,0,0,1-1.85,3c-1.53,0-2.6-.89-2.68-2.82-.09-2.45.54-5.28-4.23-3.67-1.71.57-5-3.22-7.34-5.33-.37-.34-.14-2.68,1.11-3.5,5-3.23,5-3.2,2.83-9.69-.28.08-.8.11-.82.24-.42,2-6.57,1.11-2.69,5.8.66.8-4.23,5.07-4.53,8.95-.14,1.74-1.7,3.41-3.52,2.27-2.13-1.33.29-2.4.91-3.5,1.56-2.77,2.44-4.91-1.87-6.32-2.65-.87-2.52-4.46-3.87-6.71,2.41-1.35.15-5.62,4.14-6.24a3.47,3.47,0,0,0,2.44-5.66,11.56,11.56,0,0,1-3.3-10.37c.1-.82,0-1.7-.9-2.1a1.57,1.57,0,0,0-2.17.58c-1.19,3-2.82,1.94-4.54.67-2.48-1.85-4.73-2.87-5.62,1.45-.2,1-.92,1.67-1.71.95s-2.51.52-2.1-1.77c.52-2.84-1.72-3.65-4-3.73-3.8-.15-7.5.17-10.93,2.29-1.9,1.17-3.47.22-5-1.57-1.81-2.15.07-2.87,1-3.91s3.1-1.4,2.44-3.26c-.73-2.05-2.27.29-3.23-.16-2.6-1.2-2.89-4-3.34-6.3-.39-2-.82-3.46-3-3.95-5.06-1.16-3.82-3.59-1.22-6.27l.11.09-.16-.1c1-4.1-2.54-5.82-4.82-7.48-2.63-1.92-2.51-2.89-.18-4.39,2-1.28,1.48-2.72.42-4.17-2.18-3-3-6.13-1.62-9.73.5-1.3.64-2.29-1.06-3.37-1.32-.84-2.59-3.44,1.3-2.87l2,.75a1.8,1.8,0,0,1-2.07-.72l-10.46-12.66a3.26,3.26,0,0,1,3.07-.58c4.45,1,4.43-1.43,3.53-4.44-.45-1.49,0-3.58-2-4.25-2.78-.95-1.68,2-2.64,2.77a21.76,21.76,0,0,1-4.32,2.23l.07.1c-1.05-.93.1-2.17-.53-3.41-1.49.55-2.84,2.07-4.67,1.14l.07.08c-1.64-2.66-3.49-3.72-4.57.18-.55,2-2.41,1.38-3.18,2.48-2.33,3.32-1.17,5.89,3,7.26,3.14,1,6.37,2.17,5.36,6.61-3.25.18-1.93-5-4.8-4.07-2.13.71-.12,3.63-1.25,5.69-1.95-.55-4.06-1.26-6.22-1.7-1.23-.25-3.72-.38-3.52.4.41,1.68-1.15,3.41.69,5.16,2,1.92,5.84,5.36-1.45,5.06a1.63,1.63,0,0,0-1.83,1.34c-.18.95.49,1.5,1.24,1.94a5.65,5.65,0,0,1,2.5,2.32c1.55,3.07.16,5.91-3.26,6-1.92,0-4.2,0-5.71-1-4.51-2.87-6.72,3-10.5,2.43a2,2,0,0,0-.36,1.24c.39,1.22,1.38,1.67,2.59,2,1.4.41,3.64-1.25,4.13,1.39s-1.74,3.8-3.58,4.77c-1.43.76-2.32,3.25-5,1.09-1.94-1.56-3.86-3.4-7-3.93s-.3-4.38.44-5c3.26-2.59.92-4.32-.55-6-.72-.81-2-1.93-3.08.72-1.19,3-5.67,3-7.36,6.07a3.05,3.05,0,0,1-2.24-.5c-2-1.92-3.3-3.45-7-3.27-3.19.15-2.84-5.35-1.53-7.9,1.56-3-.15-2.67-1.79-2.77-6.9-.43-13,1.85-18.71,5.59-1.07.7-1.81,2.11-3.35.81-.3-.26-.85-.25-1.28-.36-.21,4.59-3.93,3.68-6.71,4.48-1,.3.7,1.45.4,2-4.42,8.91-1,16.71,3.53,24.26,1.31,2.18,1.77,6.39,6.41,2.43,2.74-2.35,7.08.36,10.72.52.33,0,.8.58.91,1a1,1,0,0,1-1.08,1.31c-1.48,0-2.36.75-1.51,2,1.19,1.78,1.4-.91,2.33-.78,3.89.53,7.38-1.45,11.11-1.8,1.95-.18,2.66,1.76,3.28,3.26a28.81,28.81,0,0,0,6.17,9.63c-4.31.57-7.8,1.85-8,6.88,0,1.29-.27,2.66,1.1,2.74,2.52.15,2.66,2.2,3.49,3.66,3.49,6.09,2.74,9.07-2.92,12.65-.9.57-1,.35-1.77-.29-3.37-2.68-6.19-6.49-10.9-6.86-7-.56-12.43-4.66-17.9-8.36-2.61-1.77-4.29,1.95-6.64.23-.77-.56-2.26-.06-3.41-.18-1.72-.16-1.58-1.5-1.35-2.62.33-1.65,1.31-1.7,2.5-.73.58.46,1.07,1.53,1.93.45a2,2,0,0,0,.21-1.42c-.35-2.43-2.9-1.41-4.28-2.54s-.7,1.54-.87,1.52c-2.9-.2-3,7.76-8,1.52.05,3.69-2.7,5.62-.95,9,.79,1.54-2.93.17-4.12,2.07,3.8,1.84,7.93.44,11.81,1.28,4.26.93,2.76,2.43,2.11,4.69a3.25,3.25,0,0,1-2.74,2.49c-5.8,1.14-11.57,1.89-17.43-3,2.65,5.52.25,7-4,7.15-2.57.08-3.42,2.33-4.73,3.92-.31.38-.06,1.2-.07,1.82,4.92-1.24,2.83,8.12,8.56,5.67.27,3.47,4.21,3.77,5.38,6.46,1.88-.94-.21-3,1.35-4,2.29.06,1.06,2.41,2.17,3.38,4.66,4.1,5.39,4,7.79-1.91.84-2.08,5.33-1.66,3.59-5.4l-.07.06c3.39.47,2,4.07,3.77,5.73,3.25,3.05.8,7.12,1.51,10.35,1.05,4.86,3.65,9.27-.47,15.51,4.28-2.07,6.85-2.83,9.09-.35,1,1.11,1.51.28,2.31-.44A4.83,4.83,0,0,0,408,404.6c-.86-2.2-2.54-3.91-2.3-6.72.44-5.05,4.6-9.35,10.63-8.22,2.6.49,5.88,3,7.86-1.32.15-.31,1.25-.25,1.9-.24,5.65.13,6.11-.54,4.25-6.09a6.32,6.32,0,0,1-.12-1.45l0,.07c4.73.86,3.95-3,5.13-5.56.1,3.73-1.37,7.25-1.6,10.91-.1,1.47-1.19,3.58-.51,4.69,1.84,3-1.78,6.11,1,9.19s4.05-.73,6.07-.84c1.73-.09,1.25-2.75.39-4.22-1.22-2.09-2,.87-2,.61,0-1.59-3.36-4.43,1.27-4.45,1.71,0,2.5-1.37,3.65-1.73,2.9,3.2-.12,6.66.68,10.12,2.36-.72,4.38-4.26,7.17-1,.88-1.8,4.2,1.95,4.24-1.87,0-1.22.74-.7,1.28-.39,3.69,2.12,5.6,9.2,4.27,13.37-1.05,3.31-5.28,3.07-6,5.86-1.44,5.55-5.33-1.09-7.12,1.72,0,.07-.26,0-.4,0,1.47-4.54-2.56-3.9-4.67-5.2-.45-.28-.53-2.26-.05-2.76,3.28-3.42-2.08-4.64-1.7-7.24a4.63,4.63,0,0,0-1.89-.16c-1,.36-.1,1,0,1.57.72,5.05,1,10.07-.49,15.06-.16.52-.4,1.55.49,1.6,5,.27,9.51,3.45,14.55,3.08a7.76,7.76,0,0,0,7.06-5.23c.74-2.18,1-4.26,4.22-2.55,1.67.88,3.23-.15,3.31-2.4a21.08,21.08,0,0,1,.24-3.47c.78-3.69,5.61-6.22,8.92-4.72,1.42.64.79,2,.94,3.07.42,3,1.89,2.89,4.05,1.23-1.51,3.63-2.94,7.23-2.1,11,.41,1.84-.84.86-1.22,1.23-.57.55-1.93.92-1.91,1.31.26,5.35-3.13,5.23-7,5.41-1.24.06-2.67,1.76-3.31-.35-.5-1.63.69-3.89,2.25-3.83,5,.2,2.13-5.22,5-6.44.38-.17-.1-1.38-.82-1.42-1.08-.07-2.49-.48-3.1.8a21.62,21.62,0,0,0-1,3.79l-.87.86c-1.15-.56-2.25-1.61-3.41.08-.78,1.13-.53,1.71.27,2.87,1.27,1.85,1.65,3.69-.4,6.08-2.56,3,2.36,4,3.06,4.12,4,.92,7.46,2.81,11.12,4.38,1.3.56,2.27.94,3.5-.33,3.81-3.93,7.31-3.08,9.3,2.52a4.83,4.83,0,0,0,2.6,3c2,1.13,3.49,2.88.56,4.91-.85.59-2.32,1.3-1.3,2.64s2,0,3-.41a13,13,0,0,1,2.34-.28c-2.47,2.07-2.07,4-1.84,6.36a11.14,11.14,0,0,1-4.6,9.74,1.35,1.35,0,0,1-2.1-.47c-.56-.85-.32-1.46.75-1.8,4.66-1.53-.92-5.37,1.63-7.39a7,7,0,0,0-1.72-.71c-1.06-.13-1.56.54-1.28,1.52.54,1.89-.65,2.73-1.95,3.55-.75-3.66-.18-6.95,3.14-9.53-2.71-.6-5.6,1.37-5,2,2,2.36-3.45,6.44,2,7.42a66.77,66.77,0,0,0,.27,8.14c.14,1,.76,2-.38,2.39-1.32.45-1.46-.69-1.61-1.78-.27-2-.83-3.72-3.46-2.24-4,2.25-4,2.23-6.78-1.82.6,2.31-1.24,4.46,1,6.57,1,.94-1.21,3.33-1.88,3.46-5.89,1.19-3.69,7.58-6.93,10.34.73.76-3,4.57,1.76,2.59,2.12-.88,2.23.66,2.19,2.06-.09,2.91-5.44,7.09-8.17,6.49-1.16-.25-1.07-1.09-.92-1.91.38-2.19,2.33-4.66,0-6.47-2.56-2-5.78-2.3-9-1.87-1.17.15-2.44,2-3.48.27a4.37,4.37,0,0,1,.3-4.71c1.78-2.74,3.39-5.63,5.39-8.2,3.08-3.94-3.93-4-2.55-7.19-1.86-.82-2.33,1.18-3.51,1.69-3,1.31-3,5.42-6.23,6.51-.61.2-.82,1.54-1.83,1.36-5.83-1-5.3,3-5.94,6.78s-5,5.13-7.41,7.87c-2,2.29-3.85,3.57.26,6.09,2.37,1.46,3.6,5.17,2.86,8.66s-3.33,4.76-6.08,6.05c-.75-2.44-4-2.84-4.55-5.06-.59-2.65,1.95-1.81,3.41-2.12s3.24,0,3.29-2.22c0-1.65-.77-2.6-1.91-3.95-1.61-1.91-4.73-3.07-4.58-6.71.06-1.52-.53-4.51-3.8-4.46-1.85,0-6,1.55-3.29-3.34a1.43,1.43,0,0,0-2.34-1.21,15.22,15.22,0,0,1-4.54,1.9l.07,0c.16-.07.35-.24.45-.19q10.22,4.72,6.17,12.62c-.44.86-.82,2.26-1.95,1.86-4.64-1.68-6.67.94-8.14,4.63-.92,2.31-3.06,2.21-4.65,1.76-3.09-.87-4.3-.14-3.08,2.91s-.82,4.58-2.3,6.58c-2.58-.75-1.9-3.57-3.28-5.22-.72,1.83-2.7,2.23-3.36,4.2-.33,1-2,3.37-4.68,1.58-.82-.54-3.48,1-4.85,2.16-1.9,1.56.7,2,1.21,2.92,2.5,4.44,2.55,4.41.56,10.56-.73-1.28.2-3-1.22-3.82-1.26-.72-2.44-2.55-3.87-1.85-2.48,1.22-4,3.21-2.76,6.42.63,1.58-.69,1.87-2,1.84-3.25-.09-5.46-1.94-7.49-4.22-2.37-2.65,1.5-3.5,1.59-5.82-4.44-.27-7.65-3.1-11.29-5.18-1.55-.89-4.05-4.1-6.51-.47-.24.37-1.89,0-2.79-.33-5.56-2-10.82-4.47-14-9.89a3.79,3.79,0,0,0-2.57-2.1c-3,5.73,2.26,7.76,4.89,10.87.89,1,2.48,1.27,2.25,3.34-.48,4.33,2.32,7,7.08,7.26-1.84.33-3,2.94-5.54,1.3-.66-.43-1.45,1.07-1.53,2.13a2.16,2.16,0,0,0,1.77,2.57c2.33.58,4.42,1.44,4.4,4.47-1.68.86-3.44.2-5.32,1.55-2.93,2.13-6.49.35-10.05-.62-2.18-.59-6.49,2.78-9-.27-2.16-2.57-4.17-1.77-6.44-1.52-.63.07-1.78.12-1.57,1.63,6.34.32,9.84,5.26,14.55,9-3,1.39-6.1,1.28-7.78-.39-4.86-4.83-10.51-4-16.26-3.31a3.16,3.16,0,0,1-3.06-1.16c-2.41-2.85-5.26-5.44-7.1-8.62-1.47-2.55-1.71-5.8-2.51-8.8,2.86-.89,3.67,3.5,6.67,2.39-1.84-3-.22-5.61.89-8.33.41-1,1.36-2.1-.26-2.94-.9-.46-2.85.31-2.54-1.52.37-2.21,2.59-.58,3.83-1.43-.19-1.91-1.62-3-3.31-4.55-.87,5.58-3.6,8.33-9.43,6.3,1.46,1,2.24,2.1,1.89,3.55s-.25,4-2.77,1.41c-1.29-1.32-3-1.91-4.31-.2-1.17,1.56.3,3.27,1.06,4.38,1.78,2.58,2.23-1.57,3.79-1.08-.28,4.94-.29,5-4,3.18-1.74-.85-2.59-.89-2.65,1.53-.08,3.09-3,6.55,2.22,8.55,1.85.7.42,2.82-.59,5-2.71-6-7.07-6.51-12.19-5.38-2.71.6-6.34,2-5.18-3.49.09-.44-.55-1.16-1-1.57-5.55-5-9.37-11.55-15.56-16-1.71-1.21-2.83-.86-3.82-.06-1.34,1.07.13,2.7.67,3.24a19.79,19.79,0,0,0,5.94,4.26c2.23.94,2.22,2.6,2.54,4.34-2.22-2.78-2.6,6.21-5.72.82-.83-1.43-3.87-1-2.31-4.46.42-.94-2.2-4.63-5.07-6-5.77-2.84-8.89-8.66-13.23-13.12-1.33-1.36-.2-2.41,4.35-3.45-5.86-1.94-8.95-5.5-9.34-11.3-.14-2.11-2.58-.63-3.64-1.41,0-1.63,1-2,2.16-2.43,2.46-1,3.6-2.67,3.26-5.65a12.27,12.27,0,0,1,1.06-6.73c1.32-2.57,2.56-6.47,7.15-3.43a3.92,3.92,0,0,0,4.93-.59c1.38-1.34,4.2-2.79,5.21.94.19.68.28.75.8.63,1.67-.38,3.46-6.32,3.14-8.07a8.34,8.34,0,0,0-4.89-6.71c-2.78-1.39,1.22-3.24.4-5.19-.65-1.54-2.64-4.13,1.77-3.43a2.14,2.14,0,0,0,2.31-2.59c-.23-1.28-1.52-1.39-2.82-1.18-2.56.41-4.87-.33-5.43-3.07-.66-3.23-3.9,1.34-4.45-1.76-.35-2,1.88-3.36.94-5.2-.4-.77-1.47-1.23-2.28-1.74-1.1-.69-2.6-.81-3.18-2.22s-.92-4.51-3.06-2.63c-.88.77-4.94,3.66-1.22,6.61a11.27,11.27,0,0,1,2.48,3.11c1.28,2.16-1.22,4.45-1.7,4.19-3.15-1.78-3.09.32-3.77,2.33-.42,1.27-1.74,1.51-3.31,1.88-3.31.78-8.63-1.7-9.23,5.63-.24,2.9-2.37,6.31-2.23,9.89.05,1.27-.42,2.39-1.91,2.4-1.11,0-2.55.76-2.56-1.72S193.31,461,192,460c1.28-2.83.84-6.94,6.13-6.51.82.07,3-3.86,2.68-5.49-.67-2.92.5-7.41-4.88-8.24,1.86,4.92-.88,6-4.89,6.1-1.91,0-3.68.08-5.16,1.91-.62.76-2,2.62-3.76,1.4a4.16,4.16,0,0,1-1.71-3.91c.14-2,.81-3.82-2.86-2.92-2.29.55-3.17-2.79-2.09-4.34,2.7-3.89-2.07-7.25-.26-10.86l-3.24-1c1.22,3.45-3.09,4.3-3.31,6.95-.18,2.05-.79,4.31,1.07,6.12,1.44,1.39,1.53,2.93-.05,4.3a5,5,0,0,1-5,1A19.31,19.31,0,0,1,153,434c-1.46-3.71-2.68-5.25-6-6.16-1.09-.3-1.15-.95.28-1.78,3.85-2.23,3.6-4.24.39-7-2.48-2.11-1.93-6.26-4.65-8.47-1.59,1,.27,3.37-1.85,4.31-5.25-4.72-4.86-10.6-3.48-16.71.09-.4,0-1.2-.08-1.22-5.71-1.19-5.16-6.28-6.22-10.24a2,2,0,0,0-2-1.64c-3.77-.24-5.83-4-9.58-4.46a3.76,3.76,0,0,1-2.86-3.2c-.36-3.39.75-6.94-1.51-10.11-.44-.63.65-1.33,1.35-1.59s1.73-.26,2,.79.11,2,.34,3,.64,2.27,1.85,1.76.85-1.83.15-2.56c-2.11-2.22-2.52-4.43-.72-7.06,1.37-2-1-3-1.75-4-1.28-1.69-2.82-3.38-1.39-5.13,1.63-2,3,1.26,4.78,1.11.93-1.73-.5-2.31-1.5-3-.5-.36-1.63-.94-1.32-1.09,3.89-2-2.44-4.6.4-6.79.55-.42-.4-1.62-1.54-2-4.89-1.73-6.9-6-9.2-10.21-1.55-2.82-.23-3,1.89-2.85,2.49.21,4.31-1,4.7-3.14.43-2.38-2.23-2.32-3.56-2.53-3.93-.61-2.91-3.58-2.6-5.61s.38-2.86-1.47-4-2.67-.15-3.49,1.1c-.62,1-1.06,1-1.76.09s-1.29-2.19.08-2.95c1.66-.92,2.76-2.76,5.15-2.58s2-2,1.65-3.25c-.58-1.81-1.64-.81-2.61,0-1.6,1.32-3.6-.05-5.64.87-1.64.73-2.3-2.11-1.3-4,1.5-2.9,2.3-5.81,1-9.06-.5-1.23-1-2-2.42-2-1.74,0-1.65,1.24-1.93,2.33-.54,2.13-.43,4.47-2.09,6.92-2.11-3.59-.46-6.28,1-8.58,2.26-3.55,2.43-8,5.76-11.27,1.81-1.8,2-6,1.27-9.1-.39-1.69-2-1-2.53.09-1.31,2.61-3.76,2.86-5.35,1.52-1.35-1.14-1.47-3.7-.51-5.77,1.65-3.56,2.06-7.35.26-10.83-1.09-2.13-.17-3,1.06-4.2.59-.57,1.3-1.33,2-.46A6,6,0,0,1,99,255.23c0,1.16-2.16,2.73-.12,3.31s3.35-1.57,3.64-3.25c1.06-6,4.25-10.93,7.15-16.2,2.27,1.2,1.41,4,3.63,5.62,1.51-7.31,2.58-14.09-2.46-20.53-1.31,3-4.26,5.07-4.15,9,0,1.24-.23,4.11-3.66,3-2.77-.86-3.1,2.43-3.89,4.07s-.33,3.56-.43,5.38l.06-.07c-1.11-.37-1.86.41-2.75.81a1.11,1.11,0,0,1-1.62-.61,1.42,1.42,0,0,1,.43-1.29c3.46-2.1,2.23-4.24.54-6.89-.94-1.48-2.2-3.83-.45-5.49,5.39-5.12,2.91-12.6,5.69-18.26,2.24-4.55,3.92-9.77,8.15-13.14,3.3-2.63,4.75-5.57,2.85-9.71-.71-1.55-.82-3.15,1-4.4,2.75-1.95,6.32-3.2,6.76-7.32a1.09,1.09,0,0,1,.64-.73c1.2-.31,1.79.51,2.28,1.4a2.09,2.09,0,0,1,.1.72c-.61-1.06.87-1.2.89-2,0-2,1.45-3.53.68-6-.61-1.92.36-4.71,2.85-6.43a14,14,0,0,0,6.06-8.85c.28-1.31,1-6.08,4.95-2.24,1.37,1.34,3.23.64,4.5-1.34,2.13-3.32,2.31-7.71,5.71-10.33a.82.82,0,0,0-.27-1.52c-4.52-1.53-1.84-3.54-.31-5.36,2.34-2.78,3.57-6.42,6.63-8.65.73-.53,1.14-1.24.52-2.07s-1.19-.21-1.81-.06c-3.22.79-5,3-6,6-.29.85.24,2.22-1.26,2.22s-1.83-1.15-1.79-2.44l-.08.1a50.69,50.69,0,0,0,9.18-13.17c.7,1.06,2,2.32,1.74,2.75-1.38,2.53.23,2.81,1.66,2,4.33-2.63,10.64-3,11.55-9.79.46-3.44,4.14-3.45,6.26-4.94,3.67-2.58,6.92-5,9.44-9,2.9-4.66,7.37-8.37,11.31-12.33,1.58-1.58,3.05-1.32,5.09.27,2.29,1.79.73,2.39.05,3.82-2.68,5.6-8.35,8.58-11.56,13.69-.52.83-2.68,1.16-1.34,2.48,3.92,3.87.88,5.48-2,7.42-1.59,1.09-2.07,2.88-2.17,4.77a2.35,2.35,0,0,0,1.32,2.47c1,.41,1.4-.41,1.9-1.11,1.89-2.68,2.35-1.11,2.68.93a11.06,11.06,0,0,1-.68,6.35,16.19,16.19,0,0,0-1,9.71c1.95-1.25,3.44-2.24,3.45-4.72,0-3.18,1.37-6,2.58-8.93,1.83-4.42,2.52-9.3,7.81-11.53,1.93,2.62,3.62,5.4-.72,8.26-1,.64-1.41,2.23-1.85,3.46-.6,1.69.76,2.83,1.62,3.94,1.07,1.38,2-.09,2.94-.56,4.42-2.19,6.21-5.9,4.76-10.74-1.17-3.91.37-7.85-.53-11.77-.31-1.34,1-2.26,2.18-3,2.73-1.8,5.92-2.92,8-5.67a2.17,2.17,0,0,1,2.73-.63c4.16,2.92,6.24.84,7.83-3,.33-.79,1.3-.91,2.18-.77a4.58,4.58,0,0,1,.66.5c3.56,3.44,4,7,.79,11-1.52,1.94-1.53,4,1.55,4.91a2.86,2.86,0,0,1,1.9,2.53c-3.07.56-6.21.71-9,2.82-1.23.93-3.87,2.42-6.34.47-1.3-1-3.38-.34-4.41,1.18-1.4,2.06-1.41,5.09-4.37,6-.1,0-.23.37-.18.43,2.72,3.43-1.38,8.62,3,11.61,1.49,1,1.45,2.84.22,3.23-6.29,2-5.32,8.07-7,12.4-2.6,6.7-2.78,14-3.17,21.16-.07,1.33-.36,2.92,1.29,3.39s1.51-1.31,2.07-2.19c.76-1.18,1.63-1.81,2.62-.25,2.24,3.53,4.23,1.78,6.25-.23.71-.7,1.51-1.3,2.23-2,1.53-1.44,2.78-.27,4,.44,1.77,1,.91,2.25.1,3.31a10.87,10.87,0,0,0-2.37,4.82c2,.89,3.73.45,4.44-1.21,1.7-3.92,5.61-5.68,7.94-8.73s5.66-6.33,4.77-11.19c-.32-1.76.65-3.12,2.26-4.63,3.1-2.91,7.66-4.67,8.72-9.74a21.54,21.54,0,0,0,2.48,3c1.18,1,2.29.9,3.3-.55.88-1.25,1.54-2.82.1-3.41-7.88-3.23-2.48-8.59-1.94-12.91.18-1.45,1.75-2.75,1-4.77-.66-1.81,1.05-3.7,2-4.26,4-2.5,8.17-5.06,12.64-6.29,2.38-.66,5.31-.59,7.76-1.45,3.74-1.31,6.65,0,9.44,2,4.23,3.08,8.72,2,10.75-2.75,1.81-4.21,5-6.73,9.19-8.59a60.23,60.23,0,0,0,9.46-4.93c5.56-3.76,10.64-8.41,18.42-3.8.13.39-.95,1.16-1.45,2-.68,1.16-.93,2.24.07,3.15,1.72,1.56,1.64-.64,2.34-1.24,2.75-2.32,8.82-1.5,12.46,1.69,3.3,2.89,3.3,2.89,7.86,2.43-.14-1.86-4.35-.16-2.91-3.18,1.09-2.28,2.94-1.52,4.73-.84a27.51,27.51,0,0,0,10.58,2c1.22,0,2.91-.92,3.54.76.72,2-1.58,2.21-2.65,3.72,3.19-.52,5.56,1.13,7.61,2.68,1.48,1.12,3.76,3.08,2,5.69-1.45,2.11.58,3.34,1,5a1.7,1.7,0,0,0,1.27,0c1.4-1.26-.57-2.39-.23-3.65a4.72,4.72,0,0,0-.7-3.82c-2.2-3.61-1.33-5.41,2.85-6.65,2.7-.8,3.39-.54,3,2.08-.8,4.85,1.21,8.24,5.77,9.36,2.84.7,3.1,2.88,3.68,4.6.81,2.38,1.7,4.21,4.52,4.6-3.35,3-3.35,3-10.86-3.51-.4,3.38-2.33,5.28-5.21,6.54-2.7,1.19-1,4.45-2.83,6.63-2.05,2.44-2.78,4.67-6,1.62-.88-.84-2.51-1.26-3.24.58-.57,1.43-2.31,3.4-.12,4.31,4.49,1.85,4.38,8.58,10,9a1.05,1.05,0,0,1,.77.59c1.11,4.76,4.9,7.18,7.91,10.49,1.87,2.07,5.07,1.52,6.32,4.9s0,5.71-1.3,7.82c-.87,1.4-2.37,6.25-5.73,1.75-3.74,1.85-8-.5-11.88,1.85-4,2.46-5.44,5.37-4.6,10,.22,1.19,3.11,5.68-2.68,4.33a5.47,5.47,0,0,0-5.39,2.6c-1.89,3.19-4.71,5.08-10.07,5.79,3.92,1.38,5.35,2.81,3.76,5.48-.52.88-.34,2.52.67,2.49,3.89-.14,3.61,2.95,4.68,5.2,1,2.07,1.85,4.24,5.15,4.14,4.59-.16,7,5,12,5.4,1.86.13,2.64.45,4.08-.85a9.35,9.35,0,0,1,4.56-1.77,2.85,2.85,0,0,1,2.79,1.77,1.42,1.42,0,0,1-.82,2c-3.4,1.62-1.46,2.76.44,3.37,3.59,1.15,3.92,2.87,1.85,5.84-3.52,5.05-8.34,9.05-11.42,14.47-.29.52-1.89,2.59-3.53.4-1.28-1.69-3.41-.49-5.15-.64-2.34-.2-2.14,1.63-1.13,2.41,1.95,1.5,1.58,2.8.19,4-1.62,1.43-3.72,2.78-5.83,1.61a11.46,11.46,0,0,0-4.45-1.71c-1.33-.15-1.51-1.13-1.13-2.61,1-3.8,1.56-7.66,4.4-10.73a5.31,5.31,0,0,0,1.23-4.21c.31-.17.91-.17.44-.78l-.37.85c-1.63,1.07-3.37,1.95-4.23,3.93a1.66,1.66,0,0,1-2.84.68c-1.05-.92-.07-1.7.4-2.55.81-1.44,3.42-2.76,0-5.13.24,5.13-1.13,8.81-5.69,11.36-1.71,1-1.05,4.75-.12,7.19,1.12,2.89.45,4.14-2.79,3.53-1.92-.36-3.14,0-4.31,2.12-2.95,5.27-8.79,6.49-14,8.84,4-1.86,3-6.42,5.29-9.18,1.66-2-.41-3.85-1.58-5.06-1.45-1.5-2.26.08-3.22,1.44a63.66,63.66,0,0,1-5.69,6.21c-1.91-2.72-1.38-5.32-.24-7.72,1-2.15,1.53-3.82-1.4-4.52-1.57-.37-2-1.58-1.31-2.59,4.89-7-3.07-10.2-4-15.48-1.82,2.69-.64,5,.37,7.37,1.72,4.1,3.06,8.07-.07,12.42-.9,1.24,0,4,.5,6,1.48,5.35.41,6.87-4.64,6.07-.32,0-.66.1-1,.08-1.71-.15-2.39,4.65-3.58,1.78-1.05-2.51-5.2-4.7-2.29-8.91,1.27-1.84.42-5.17.47-7.83,0-.85-.29-1.79-1.26-1.87a1.38,1.38,0,0,0-1.44,1.65c.44,2.95-1.19,5.67-.55,8.8.49,2.45-1.44,5.12-.89,7.94.1.51-1.31,1.86-1.4,1.8-3.73-2.26-5.94,2.48-9.33,2-3.05-.48-4.35-2.23-4.25-5.06.07-2.18.38-4.28-2.1-5.52-1.12,1.85-.31,3.3.61,4.69.6.9.44,1.61-.48,2-1.27.53-1.64-.17-1.88-1.39-.51-2.58-1.23-5.11-1.82-7.48-2.52-1-1.51,2.52-3.37,2.09-1.73-1-.24-2.82-1.11-4-2.63.4-.7,2.94-2.05,4-2.64-2-4.36-1.59-5.68,1.89-.75,2-1.4,5.42-3.66,5.29-4.53-.25-9.08,2.32-13.45.06a4.58,4.58,0,0,1-2.25-4.12c0-.74.19-2-1-1.84a6,6,0,0,0-3.09,1.23c-.64.54-.25,1.73.42,2.21,2.71,1.94.3,6.41,4,7.95.43.17-.7,0-1,.23a10,10,0,0,0-4.7,7.56c-.27,2.53,2.15,3.2,4.22,4,2.8,1.13,2.39,5-1.34,6.54-4.36,1.77-2.92,4.41-1,5.74,3.14,2.12,2.22,6.11,4.95,8.29,1.25,1,1.56,2.45-1.43,2.2-1.76-.15-3.88,1.73-3.84,4.42a3.48,3.48,0,0,0,2.34,3.48c2,.67,3.57-.19,4.17-2.36.31-1.14.93-1.17,1.8-.59,1.62,1.1,1.2,2.71.72,4.05s-1.82,1.7-3.24,1.8c-1.71.12-3.68.61-2.95,2.81a2.72,2.72,0,0,0,4.21,1.07c1.91-1.93,4.4-1.15,6.44-2.23,2.52-1.33,4.49-.46,5.21,2.86,2.37-5.2,4.77-1.06,8.24-.35-2.5,1.43-4.91,1.81-4.91,4.66,0,1.17-.94,2.1-2.75.6-3.68-3-5.7-2.34-7.13,2-.51,1.54-1.6,2.13-2.51,1.43-4.45-3.38-8.37-.92-12.42.76-.21.08-.58-.23-.88-.36l0,0-1,0,.05,0c-3.07-1-5.72-2.38-5.69-6.22,0-1.13-.35-2-1.61-2-1.82-.06-2.11,1.19-2.24,2.66-1.74-8.09-1.81-16.31-1.36-24.27-2.13-1-2.49,1.64-4.15.83-.07-.09-.47-.43-.42-.54,2.07-4.06-1.37-5.78-3.69-7-2.75-1.46-4-3.08-3.83-6.05.23-5-2.44-9.86-.75-15.51-4.77,2.31-8.33.73-11-3-1.12-1.57-3-3.77.64-5,1.19-.4,1-1.13.32-1.83-3.66-3.71-7.88-7.2-9.86-12a17.15,17.15,0,0,0-7.49-9c-1-.61-.46-1.84.9-1.91.8,0,1.92,0,2.38.44,4.75,5.06,9.06,2.53,13.37-.65.37-.27,1.19-.64,1.17-.67-1.75-3.78,1.48-7.91-.58-11.46-.93-1.61-.59-2.6-.23-4.06s3.43-2.36,1.24-4.21c-1.74-1.49-4.9-2.05-6.29-1.17-4.63,3-4.68,1.16-4.29-3,.25-2.73-.37-5.57-.78-8.34-.27-1.86-1.41-2.61-2.88-1.08-.48.5.25,2.33-1.46,1.47a3.13,3.13,0,0,1-1.89-2.76c.12-4,.16-4-4.31-3.38a10,10,0,0,0,.8,1.7c1,1.43,1.07,2.93-.15,4.07s-2.77-.19-3.56-.77c-1.41-1-2.31-2.41-4.43-1.64-1.52.56-2.65-3-4.19-1-1.3,1.72-2.78,3.81-2,6.45,2.35.42,1.21-2.33,2.49-2.81.31.13.73.18.81.37.82,2,1.93,3.95,2.25,6,.21,1.4.7,4.73-2.81,2.36-2-1.37-3.7.38-5.24,1-1.16.45-1.08,2.48-.25,4,.73,1.36-.8,4.87-1.14,6.42-.89,3.93-4.89,5.34-6.34,8.92-1.73,4.26-4.24,8.15-4,13,.09,1.88-2.12,1.83-3.37,3.78a131.85,131.85,0,0,1,14.24,2.71c2,.52,2.82-2,3.7-3.52a2.07,2.07,0,0,1,2.48-1.19c1.89.58-.68,1.13-.11,2,1.22,1.86,2.48,2.79,4.17.68,1.13-1.41,2.05-3,3.09-4.56,1.35.76,2.42,1.39,2.35,3.35-.2,5.25.59,5.59,6.28,6.56,1.15.19,3.39.25,4.38,2.26,1.53,3.1,0,11.23-3,12.87-2.66,1.44-1.1,3.88-1.78,5.77s1.85,1.65,2.69,2.47c2.18,2.12,6,3.42,4.38,8.07-1.36,4,2.36,7.23,3.33,11,.68,2.64.13,6.59,4.08,7.74-.63,2.1-1,4.35-2,6.22-.5.9-2.05.17-3.09-.51a10.42,10.42,0,0,0-3.17-1.33c-1.3-.32-3.23-1.62-3.68.7s1.68,1.25,2.79,1.45c1.42.25,2.63,1,2.72,2.47.14,2.45-1.9,1-2.91,1.4a41.87,41.87,0,0,1-4.13,1.06c-.26,1.19.53,1.61,1,1.6,2.61-.07,5.7.46,5.93,3,.25,2.73-3.21,2-5.11,2.6s-1.56,1.42-.6,2.47,1.74,2.32,2.87,2.66c4.38,1.35,6.94,4,7.42,8.64.08.72.77.95,1.53.86,1.45-.18.22-1.86,1.62-2.38.71,4,2.26,6.74,6.64,3.49,1.72-1.28,1.89.45,2.45,1.25,1.5,2.1,2.09,4.9,5.13,6-.83.72-1.39,1.26-2,1.72-1.53,1.12-3,2.37-2.37,4.49.4,1.35,1.92,2.51,3,2.29a8.51,8.51,0,0,0,4.66-3.34c.17-.22.09-.65.08-1-.1-8,5.15-14.6,5.3-22.91,2.9,2.87,6.13,1.43,9.12,1.63,2.38.16,5-1.06,6.62,1.94a1.1,1.1,0,0,0,2,.08c2.76-3.77,4-1.36,4.67,1.34a5.38,5.38,0,0,0,5.62,4c5.07-.14,9.84,1.42,14.83,1.61,5.8.24.69,4.83,2.17,7,.11.15-.74,1-1.2,1.52,3.84,1.09,3.84,1.09,8,10.3,3.3-2.83-.92-9.28,5.3-10.55.52,2.68.94,5.39,1.59,8.05.33,1.36,0,2.77,2.8,2.84,4.21.11-1.18,3.93,1.68,5.4,1.33-1,3.12-5.31,4.77,0,2.13-1.29,5.07,1.05,6.06,0,1.62-1.74-1-3.33-2.07-4.91-1.83-2.57-.24-5.22.16-7.83,2.25.44,4.85-.25,6.23,2.66a11.48,11.48,0,0,0,3.58,4.37c1.35.94,2.15,1.41,1,2.95-.4.52-.75,1.64,0,1.63,4.32-.07,5.8,3,7.35,6.15a1.41,1.41,0,0,0,1.28.4,1.51,1.51,0,0,0,.87-2.05c-1-2.34-.12-3.72,2.07-4.87.69,2.35,1.12,6.3,3.88,1.12.54-1,1.73-.74,2.68-1,1.43-.33,2.69-1.65,2.39-2.74-.44-1.59-1.05-4.45-2.76-4.19-4.15.64-3.07-2.29-3.7-4.24-.32-1,1.08-2.76-.84-2.82-2.12-.07-.34,1.8-.85,2.64-.25.4-.41.85-1,2.2-1.68-5.73.16-10.84-3.11-14.94-.91-1.14-1-3.08-3-2.07a2.89,2.89,0,0,0-1.3,3.87c.74,1.74,2.78,3.26.94,5.35s-5.28-1.38-6.73,2c-1.41-1.35-2.59-2.69-1.47-4.89.78-1.53,2.18-2.93,1.67-4.89-1.71-1-2.28,3.3-3.92.83-1-1.56-2.6-2.43-2.08-5.57.64-3.91,2.81-8.67-.78-13-1.1-1.32-.32-4.79,3.36-5.45-.42,1.82-3.6,2.82-1.28,4.57,1.64,1.24,3.57.6,4.64-1.22s2-1.84,3.94-.79c5.11,2.83,10.34.63,12-4.9.62-2.07.86-3.52,3.84-3.41,2,.07,4.78.3,6.41-2.63.87-1.57,5.17-.58,5.26-.12.48,2.4,1.09,5.81-.17,7.31-3.67,4.34-4,4.05-8,5.13,2.57,1.56,13.2-1.68,12.66-4-1.05-4.48,2.07-2.25,3.24-2.42s2.54,1,3.75.9c1.51-.13,3.71-.05,4-2.1s-1.76-1.33-2.84-1.7a3.27,3.27,0,0,1-2.43-3.36,1.81,1.81,0,0,1,.63-1.26c.66-.51,1.2-.16,1.51.55,1.24,2.89,4.54,2.95,7.07,4.45-1.68-2.43-3.29-4.91-5.08-7.26-1.08-1.42-1.59-3.35.35-3.47,5.32-.31,2.2-4.36,2.68-6.29.58-2.36-2.63-.5-3.82-1.37-1.61-1.17-4.42,0-5.21-2.09-.86-2.35,1.53-3.63,3-4.65,4.45-3,.54-6.65.58-9.83,0-2-.67-5.31-3.29-6.88-.58-.35-1.91-.49-1.12-1.63a3.21,3.21,0,0,1,2-1.14q8.44-.9,16.91-1.56c.53,0,.87.4,1.6-.17,3.34-2.58,5.18-2,5.21,2,0,3.71,2.08,3.68,4.62,4.36,2.25.61,3.78,1.26,4.15-1.83a1.88,1.88,0,0,1,.94-1.08c1.63-1,12.83.75,14.14,2.22.57.64,1,1.46,1.94,1.15a2.24,2.24,0,0,0,1.55-2.32c-.22-3.53-1.46-7.38,3.57-8.89.76-.22.33-1.45,0-2.23-.7-1.73,0-2.9,1.72-2.25,2.65,1,4-.62,5.55-2.07,5-4.65,5-4.66.94-10.54-.48-.7-1.15-1.4-.39-2.13a2.33,2.33,0,0,1,1.84-.31c3.13.69,4.7,2.72,5.49,5.83,1.09,4.25,5.94,5,9.57,3.15,1.92-1,3.87-2.67,6.2-2.91,2-.19,2.46-.91,2.15-2.89-.22-1.39-.24-2.75-1.66-3.26-1.91-.68-3.38,1-3.79,2.14-1.3,3.71-2.29,2.55-3.63.15-1.26-2.23-4.77-2.5-4.94-5.79-.05-.87-.2-1.69.42-2.28.87-.84,1.45.15,2.06.56,1.23.84,2.33,1.77,4.05,1.53,2.58-.36,4.88-1,2.82-4.13-2.43-3.76.73-3.1,2.53-3.52.16-1.46-1.07-2.05-1.67-3s-1.88-2-1.34-3c.69-1.36,1.94-.52,3,.07s1.56.09,2.12-.66c1-1.35-.33-2.39-.85-3-1.73-2.14-2.65-3.27-.66-6.51s3.62-8.66-2.07-11.85c-.4-.23-4.36-4.31.69-5.6,1.54-.4,2.26-2.3,1.64-2.92-1.63-1.64-2.75-4.47-5.84-3.91a5.5,5.5,0,0,0-4,2.13c4-3.39,2-6.54-.35-8.81s-.27-2.47,1.5-3.8a9.83,9.83,0,0,1-7.24-3.22c-.6-.66-1.05-1.44-.6-2.22s1.44-.75,2.17-.28c1.08.7,2.62.47,3.38,1.89.93,1.73,2.3,1.54,3.76.56s1.24-1.89,1.23-3.53c0-2.86,2.87-3.39,5.14-2.8s3.87.93,4.58-1.82c.59-2.3,2.19-4.95-2.13-5.28-.8-.06-1.21-1.11-.58-1.34,2.84-1,.18-5,3.23-5.92.51-.16.6-1.91-.32-2.62-3.84-3-.41-4.29,1.55-4.91,1.21-.38,2.55-.62,2.36-1.71-1.39-8.14,6.12-7.07,10-9.38,2.43-1.47,5.77,1.32,7.72,2.41,3.41,1.9,7.79-.8,10.3,3,.74,1.11,2.78,1.56,1.66,3.53a.91.91,0,0,1-.07.14l.06-.19a34.89,34.89,0,0,1,4,0c1,.12,2.54-.26,2.84,1.32s-2.34.5-1.87,2.67c2.42-1.56,4.78-.28,7.22-.1,5,.36,8.31-4.2,13.12-5,2-.33.47-6.13-2.25-7.27a55.89,55.89,0,0,0-6.09-1.71c-6.71-1.92-7-2.4-4.79-9.2-.58-.78-1.45-.6-2.25-.7-1.57-.19-3.84,1.83-4.53-1.14-.54-2.32,1.79-2.93,3.05-4.1.77-.71,2.69-.18,2.59-1.76-.14-2.39-2.67-.18-3.74-2a15.78,15.78,0,0,0,5-3.07c1.32-1.2,1.53.21,1.79,1.14-.28.17-1,.25-.14.65Zm-164.67,282,.24.24-.3-.18-.18-.34Zm-63.91,61.08a4.79,4.79,0,0,1-.48-.53,2.33,2.33,0,0,1,.27-.26l.2.75a7.76,7.76,0,0,0,4.71,3.79c-1.83-1.85-.46-3.65.12-6.13C267.31,453.88,266.31,455.43,264.39,454.71Zm14.06,14.83c.55.71-.18,2,.95,2.37.2.07.9-.54.94-.88.15-1.47-1.5-.66-2-1.42-1.9-1.05-2.52-3.14-3.69-5.16-2.31,2.83-4.21,5.66-8.14,4.91.07.86.08,1.36.15,1.84.71,4.86,5.42,8.58,3.95,14.12-.28,1.09,1.22,1.41,1.71,1,2.64-2.38,6.57-3.34,8.06-6.88.47-1.12,2.62-3,.6-3.65-1.31-.4-4.16-1.56-5.2.17-3.84,6.42-2.66,1.41-3.23-1.17-.47-2.16-2.26-4,.45-6C275.39,466.93,276.52,470.31,278.45,469.54Zm4-70.74c-2.45,1.08-4.1.1-5-2.18-.5-1.3.1-2.23,1.58-2.5.6-.11,2.16.54,1.61-.33s-.09-2.19-1.18-3c-1.42-1-1.26.74-2,1-2.39.83-1.82,3.1-2,5.06-.19,2.28.4,5.24-3.55,5.52.5-1.57,2.52-2.91.2-4.57-1.91-1.36-2.74-.9-3.51,1.07-.14.35-1.2.47-1.83.47-1.64,0-3.58-1.09-4,1.87-.37,2.69-.8,5.25,1.25,7.51.49.54,1,1.08,1.62.66,2.9-1.84,6.69-.65,9.62-3-3.08,2.5-1.71,6.39-3.56,9.4s2.59,4.25,4.44,6c.7.68,1.91-.72,1.67-1.74-1.87-7.87.92-14.69,4.55-21.36l.21-.51Zm187.56,40.82,0,.05c-2.59-1.23-4.46-4.34-8.27-2.24-1.63.89-7-3.85-6.1-4.52,3.21-2.44-.31-4.09-.56-6.32-.44,2.65-3.5,4-3.29,6.44.39,4.37-2,4-4.78,3.51l-3.87-.69c-.82-.16-1.73-.33-2.21.51s.35,1.43.77,2.12c2.2,3.57,7,3.54,9.37,7,1.54,2.25,3.56,3.13,6.1.45,2-2.13,5.85-.52,5.22,1.19-1.76,4.77,3.48,10.76-3.65,14.45,5,.79,5.8-2.47,6.74-5.07,1.3-3.62,2-7.27,5.75-9.68,1.2-.78,1.12-3.89,1.18-5.95C472.52,439.79,471,439.89,470.05,439.62ZM385,485.48c3.05-4.75,1.18-9.3.33-13.91a12.41,12.41,0,0,1,.26-4c.77-5.29,1.6-10.58,2.42-15.87.27-1.74-.61-3.53,2.05-4.82,2-.95,2.19-4.15-.89-4.85a80.35,80.35,0,0,0-14.53-2.13c-3.64-.14-3.72.37-2.26-3.16.35-.85.1-1.36-.49-1.57-3.42-1.22.62-3.31-.59-4.75,3.75-1.44.84-3.66.54-5.47-.22-1.3-1-2.51-2.13-5.1-2,5.61-5.53,9.53-6.11,14.54-.4,3.5-.88,8.1,5.14,8.08,1.73,0,1.69,1.9,2.29,2.95,1.82,3.15,3.5,6,8,5.56,1.74-.18,2.19,1.79,2.24,3.29.07,2-.29,4-.16,6,.22,3.32-2.47,5-4.46,5.89-2.18.91-3.88-2-5.09-3.8s-1.72-3.95-2.58-5.93c-.61-1.39-1.41-3.29-3.09-2.6-2.95,1.2-8.92-2.55-8.41,5,.08,1.14-2.19,3-3.73,3.56-2.37.82-3.82,3.05-6.48,3.45-1.51.23-3,1.81-.08,2.72,1.5.46,1.52.75,1.07,2.34-.56,2,5.38,6,7.46,5.33,2.82-.89,6.16,1.29,6.29,4.11,0,1-.23,2.5-1.42,2-3.59-1.53-5.43,1.42-7.87,2.72-2,1.07-3.76,1.41-5.21-.66-2.85-4-5.87-5.53-9.54-.82l9.09,7.75c-1.19,2-4.87,1-4.18,2.2,1.8,3.15-.21,8.07,4.63,9.8a27.63,27.63,0,0,0,2.55-3.94c.63-1.4-1.31-3,.24-4.65.71-.78.6-2.33,2.27-1.71.83.32,1.67,1.44,1.1,1.86-2.91,2.17-.91,5.29-1.78,7.8-.31.89-2.41,1.76-.44,2.66,1.65.75,2-1.25,2.73-2.25s.29-3.86,1.29-3.08c2.85,2.21,5-.77,7.71-.12,5.73,1.38,11.76,5.39,17.51-.36.6-.59,2.26-.24,3.41-.15,1.61.12,2.34-.76,3.55-1.74,3.46-2.8,2.69-6.28,2.62-9.71,0-1.37,1-3.2-.74-4.08C387.9,483.05,387.3,485.51,385,485.48Zm79.09-243.76c1.8,3.59,3.09,4.11,5.78,1,7.11-8.25,14.08-7,18.67,3,1,2.16,2.1,5.44,3.78,5.9a37.24,37.24,0,0,0,13.21,1.13c2.13-.21,3.31-.48,4.38,1.43.5.89,1.22,1.71,2.37,1.37,1.6-.47.89-1.85,1-2.92.35-2.69-.88-3.69-3.4-3.31a2,2,0,0,1-2.42-1.16c-.17-.41.35-1.59.67-1.63,2.61-.34,4.84-4,7.83-1-.26,1.11-2.39.26-2.14,1.85,2.13,1.45,4.11-.53,6.55.27s1-3,2.09-4.59c.64-.93,2.11-2,.15-3.93s-3.1-.5-4.11,0c-7.21,3.33-14.24,3.22-21.16-.64a2,2,0,0,0-2.62.17c-3.39,2.52-6.68,1.15-9.5-.91-4.56-3.31-9.51-5.35-16.94-6.69,6.45,4.57,2.58,6.7.58,10C467.1,243.89,465.93,241.14,464.09,241.72Zm-217,.91c4.13,1.13,3.42,4,3.21,6.85s.4,5.11,3.74,2.87c2.22-1.49,3.52,0,4.86.93s2.19,2.47,4.14,2.09c.33-2.81-1.44-6.63,2.2-8s6.72-3.48,10.27-4.73c1.23-.43,1.73-.9,1.15-2.08-.43-.88-.81-1.65-2.21-1.31-6.38,1.54-9.17,0-11.25-6a19.63,19.63,0,0,0-1.9-4c-1-1.63-1.69-2.65-4-.55-4,3.57-2.7,7.62-2.48,12.26C251.59,238.16,249.79,240.77,247.13,242.63Zm231.79,7.56c-2.88-4-6.09-5.54-10.6-2.95-1.83,1-3.7,2.3-5.93,2.28-.93,0-2.47.57-2.24-1.56.36-3.38-2.28-2.36-2.92-1.25-1.82,3.1-4.11,6.31-3.12,10.27.54,2.15,8.37,7.08,10.55,6.24,2.66-1,4.34-.22,6.22,1.3,2.74,2.22,5-.32,6.06-1.75,1.27-1.65-.67-3.55-2.59-4.12s-2.55-1.88-2.4-3.71a4.26,4.26,0,0,1,3.29-3.89C476.33,250.69,477.57,251.57,478.92,250.19Zm-128.87-45c-1.85-1.75-.3-6.46-4.89-6.34a43.26,43.26,0,0,0-8.82,1.28c-3.32.77-4.41,4.05-4.27,6.52.12,2.19,2.14,3.85,5.53,4.15,2.72.23,4.37-2.76,7.07-1.13C349.62,212.66,349.1,208.1,350.05,205.19ZM116.42,215.1c-1.46-3,.3-5.21-.09-7.53-.17-.93.32-2.14-.79-2.66a2.47,2.47,0,0,0-3.07,1c-1,3-3.16,5.34-4.56,8.09-.45.88-.17,1.93.88,1.72,5.2-1.05,5.79,4,8.52,6.22,1,.77-.88,3.24,1.56,2.77a3.18,3.18,0,0,0,2.91-3.36c-.14-4.25.94-8.35,1.58-12.51.26-1.62.43-3.93-2-3.47-1.51.28-4.29.9-3.54,3.78C118.36,211.23,117.67,212.89,116.42,215.1ZM307.84,448.31a7.37,7.37,0,0,0,.33-.89c.79-3.79-2.67-7.41-.23-11.5.57-.94-2-1.3-3-.45-3.56,3-3.52,8-6.52,11.57-1.3,1.54,2.68,2.28,4.51,3.06a1.46,1.46,0,0,1,.42,1.3,2.24,2.24,0,0,0,2,3.24c1.82.08,1.79-2.32,2.79-3.47C308.59,450.6,307.93,449,307.84,448.31Zm19.39-58.57c3.25-1.31-.58-5.43,3.3-6.18,1.42-.28,3.2,0,2.65-2.46-.47-2.08-1.63-2.51-3.66-2.14-1.56.28-4.79,2.29-3.36-2.36.4-1.27-1.29-1.93-2.37-1.89s-1.41,1.23-1.23,2.28,1.32,3.1-.79,3c-2.53-.08-2.91,1.13-2.7,2.91a4.62,4.62,0,0,0,3.51,4.23C324.7,387.52,326.34,388.12,327.23,389.74ZM278,368.28c2.65-5.9,1-8.77-5.06-9.36-1.47-.15-3.22.46-2.72-2.12.55-2.87-1.28-2.32-2.14-1.08-1.43,2.06-3,1.87-3.87.26-3-5.39-4.79-1.81-7.72,1.46,3.31-1,4.32,3.21,6.67,1.61,4.11-2.8,5.23.8,7.1,2.8,1.19,1.26,1.57,4.1,3.61,3.52C276.69,364.57,276.53,367.07,278,368.28Zm-29.71-87.53c-.87-1.17-1.52-3-2.42-3.1-2.49-.37-4.86,1.42-7.61.7-.89-.23-1.82.57-1.67,2.68.18,2.53,4.14,5.07.55,7.87-.11.09,1.19,2.14,2,.9,1.22-2,3.76-1.89,5-3.85A47.17,47.17,0,0,1,248.28,280.75Zm-34.73,74.41c-.13-2.68-5.32-1-3.75-3.09,2.52-3.41-3.42-6.14.18-8.86-.3-.34-.53-.8-.91-1-1.64-.79-5.37,2.06-5.73,3.9-.67,3.36-2.24,5.84,3.09,7.91C209.17,355.11,210.86,356.57,213.55,355.16Zm124.78,51.95c4.48-.26,5-1.35,3.27-6-.39-1.06-1.72-2.74.24-3.93,1.1-.68,1.17-1.68.2-2.42-.59-.46-2-.89-2.22-.62-1.71,1.94-4.64,1.95-6.19,3.79s1.35,3,1.61,4.7a30.27,30.27,0,0,0,1.08,3.21C336.62,406.94,336.92,407.83,338.33,407.11Zm12.29,25.11c2-2.84,3.45-4.87,4.84-7,.34-.51.71-1.66,0-1.72-4.66-.41-4.37-5.45-7.19-7.56-.62-.48-.88-1.49-1.81-.61-.61.58-1.2,1.58-.6,2.2C349.58,421.38,349.58,426.44,350.62,432.22Zm77.65,13.12c-3.38-.63-6.69.23-6.89,4s4.54,1.95,6.34,3.87c1.61-1.63,5.75-.14,5.31-4.26C432.74,446.17,431.9,444,428.27,445.34ZM396.67,462a9.07,9.07,0,0,1,8-4.08c.86,0,6.51-1.25.63-3.55-.43-.17-.53-1.14-.81-1.73-.87-1.83-1.73-3.37-3.82-1-.82.94-2.59-.39-3.59,1C401.29,455.92,397.68,458.63,396.67,462ZM119,246.74c-2.92,1.95-3.22,5.12-3.17,8.53,0,1.59.57,3.45,1.56,3.87,1.4.58,2.58-1.09,3.32-2.35a31.77,31.77,0,0,0,2.1-4.5c.43-1.11,2.91-2.41.42-3.36C121.79,248.38,121.07,246.84,119,246.74Zm291.74,163.5c-.61-.6-1.31-.58-1.44.24-.06.37.25,1.13.49,1.18,2.15.39,2.37,1.79,2.23,3.63-.28,3.53,3,1.36,4.19,2.49,1.23-2.31,3.84-2.25,5.75-3.38a2,2,0,0,0,1.06-2.07c-.18-1-.85-.9-1.79-.95C417.73,411.17,414.25,410.64,410.75,410.24ZM346.16,381c-3.87-6.74-3.87-6.74-13.19-4.7,1.75,1.68,3.55,3.07,4.58,5.18.75,1.54,3.2,2.29,3.42.7C341.77,376.47,344.28,381.79,346.16,381ZM138.64,328c-.69-1.43-.94-3.76-2.06-3.27-2.44,1.06-6.28.62-6.55,4.81-.13,1.93,1.4,3.41,2.45,2.94C134.76,331.42,136.64,329.48,138.64,328Zm169.1-85.2c3.35-9.55,2.7-13.21-2.12-15.53C304.34,232.26,306.55,236.68,307.74,242.76Zm-62.29,205.5c1.64.46,5-.32,2,3.25-1.08,1.33.79,2.19,1.59,3.16s1.56.95,2.3-.06,2-1.26,1.56-3.18C251.81,447.16,249,445.8,245.45,448.26ZM343.81,108c-3.23-.78-.09-6.35-4.12-6.23-2.42.08-4.77,2.32-7.15,3.59,2.16,2.88,5.44,3.68,8.65,4.52C342.23,110.16,343.59,110.12,343.81,108ZM280.26,242.64c-2.1,6.22,1.25,9.51,10.6,10.39C288.17,248.71,284.18,245.71,280.26,242.64Zm24.2,138.91c1.88,2.47,7.33,2.24,5.39,7.45-.11.29,1,1,1.59,1.58.33-.53,1-1.08.92-1.57-.22-2.06-.19-3.92,2-5a3.54,3.54,0,0,0,.46-.33C310.84,385.07,308.88,378.36,304.46,381.55ZM496.65,216.16c5.38-6.16,1.87-12.19,2.09-17.84C497.9,203.84,495.24,209.11,496.65,216.16ZM350.94,367.56c4.48,0,5.06,4.13,7.42,6.44.72-2.21,2.39-3.74.46-6.08C356.39,365,353.88,366.58,350.94,367.56ZM374.6,159c.68-2,.7-3.23-.22-4.37-.68-.86-2.27-1.3-2.1-.2.47,3.23-2.06,5.46-2.14,8.45-.08,2.59,2,3.23,3.44,3.28,1.8.06,1.74-1.88,1.48-3.42S374.7,159.81,374.6,159ZM137.77,188.67c-.05-.93-.78-1.39-1.92-1.42-2-.06-6.51,4.48-6.51,6.59a2.23,2.23,0,0,0,2.45,2.48C133,196.35,137.75,190.48,137.77,188.67Zm173.84-81.73c2.68.64,5.16-.25,7.66-.89.82-.21,1.63-.74,1.54-1.69a1.82,1.82,0,0,0-2.05-1.71c-3.38,1-6.86.74-10.28,1.14-1.53.18-1.09,1.41-1.15,2.29-.11,1.42.68,1.61,1.88,1.28A19.43,19.43,0,0,1,311.61,106.94ZM299.68,507c-.63-5.07-1.67-8.86-6.87-8.12C292.36,503.5,295.87,504.93,299.68,507ZM254.37,332.63c-5.58.69-6.65,4-6.3,8.19.11,1.33-.22,3.47,2.06,3.19a2.92,2.92,0,0,0,2.38-3.32C252.23,337.93,253.51,335.59,254.37,332.63Zm279.44-94.12a3,3,0,0,0-3,2.79c.5,1.93,2.49,3,4.43,3.07,2.13.12,2.81-1.73,2.71-3.45C537.78,238.23,534.78,240,533.81,238.51Zm-220.07,88.9c-2.27,1.13-.8,3.82-1.95,5.5s.95,2.33,1.94,2.66a1.45,1.45,0,0,0,1.91-1.9c-.74-2.57.63-2.85,2.58-2.73.75.05,1.83.36,1.54-1a13.9,13.9,0,0,0-1.07-2.53C317.24,329.86,315.62,328.09,313.74,327.41ZM421,463.07c3-.43,2.92-3.28,4-5.1a2.09,2.09,0,0,0-1.75-2.94c-3.27-.47,0,5.64-4.33,4.6-.19-.05,1.92,1.68,1.32,3.19ZM328.28,328c-.06-1.29-6.23-5-7.38-4.33-.82.46-1.14,1.72-.65,2.12,2.2,1.8,4.12,4.21,7.33,4.25C329.8,330.08,328,328.68,328.28,328Zm-138-143.89c.14-2.45-.91-3.66-2.75-4a2.25,2.25,0,0,0-2.72,2.64c.58,1.69,1.34,4.24,3.19,4.51C189.7,187.56,189.83,185.09,190.3,184.12Zm59.29,23.42c.62-1.38-1.61-2.61-.54-3.6,2.66-2.46-.54-2.39-1.3-3.31a1.57,1.57,0,0,0-2.57,0c-1.26,1.29-.34,2.39.35,3.55C246.46,205.72,247.18,207.45,249.59,207.54Zm52.83,33.71c.14-2.49-1.43-2.53-3.28-2.42-1.62.11-2.94.11-2.72,2.42s.92,4.34,3.18,4.16C301.23,245.27,302.52,243.36,302.42,241.25Zm-30.31-30c2.06,6.94,2.85,7.34,8.51,5.26ZM318.52,472.2c-1.48-1.12.72-4.25-2.11-4.29-1.61,0-2.84,2-2.93,3.38-.11,1.62,1.5,2.91,3.31,3C318,474.38,319,473.77,318.52,472.2ZM222.34,195.11c.67,1.11-1,3.76,2,3.45,2-.21,4.55-.84,4.63-2.94.08-2.4-2.92-2.26-4.62-2.92S222.15,193.44,222.34,195.11ZM576.72,346c-.87.6-1.94.86-1,1.92,1.58,1.81-.52,5.91,3.65,6a1.61,1.61,0,0,0,1.61-2.38C579.73,349.62,578.85,347.25,576.72,346Zm-333.44-4.45c-1.93,2.44-3.16,4.83-.54,7.35,1.29,1.24,2.78-.1,3.28-.95C247.82,344.93,245.46,343.34,243.28,341.58ZM258,372.17c-1.34.13-1.32,1.54-2,2-2.71,1.76-.17,3.8-.42,5.66-.11.81.89.86,1.51.81a4.37,4.37,0,0,0,1.3-.57c-1.51-2.38-.15-4.55.42-6.8C258.85,373,258.25,372.5,258,372.17ZM235.09,208.05c.18,1.33.27,4.06,2.12,4.31,2.5.34.66-2.57,1.55-3.75.18-.23.13-.62.26-.9.59-1.21,2.27-2.35.72-3.75a3.3,3.3,0,0,0-2.77-.1C235.41,204.44,235,205.88,235.09,208.05Zm-55.48-16.32c.23-1.28-.61-2.25-1.17-1.81-1.72,1.34-4.28,2-4.62,4.69-.15,1.17.62,3,1.44,2.53A9.67,9.67,0,0,0,179.61,191.73Zm242.15,248.7c-.24-.62-.94-1.81-2.15-1.38-1.68.59-3.83,1.07-4.18,3.31-.16,1.08.66,1.84,1.87,1.58C419.12,443.53,421.38,443.71,421.76,440.43ZM261.67,522.69c.95,2.57,2.64,4.06,5.7,3.58.81-.12,1.45-.37,1.31-1.53-.42-3.6-3.4-1.51-5-2.38A1.31,1.31,0,0,0,261.67,522.69Zm96.77-202.61c-1.17,3.06-4.9,4.92-1.6,9.53C356.51,325.78,360.32,324,358.44,320.08ZM319.25,208.25c-.09,3-3.82,6.07-.34,9.55C321.1,214.53,319.73,211.38,319.25,208.25ZM317.34,493c-.37-2-2.15-2.88-3.61-4.09-.63-.52-1.32-1.11-2,0-.33.57-.88,1.25-.78,1.77.27,1.42,1.16-.1,1.8.23C314.34,491.67,315.94,492.34,317.34,493ZM461.59,233.54c-.09.63-.16,1.26-.26,1.89-.39,2.37,1.69,2.43,2.81,2.29s2.58-1.61,2.52-2.39c-.18-2.47-1.86-.42-2.85-.62A9.36,9.36,0,0,1,461.59,233.54ZM410.73,468.66c2.18.17,3.22-2.08,4.25-4.12.37-.75-.68-2-1.34-1.52-1.94,1.25-5.25.53-5.78,3.8C407.61,468.43,408.64,468.81,410.73,468.66ZM341,143.73c-.06-1.49-.07-2.47-.17-3.44-.06-.67-.35-1.28-1.16-1.25a1.11,1.11,0,0,0-1.09,1.33,8.4,8.4,0,0,1,.23,6.08c-.06.16.56.82.88.83a1.34,1.34,0,0,0,1.07-.7A22.67,22.67,0,0,0,341,143.73Zm79.32,336.86c3.38-6.5,3.38-6.5,1.24-11.69C422.6,472.63,420.81,476.05,420.31,480.59ZM240,197.15a1.86,1.86,0,0,0-2-2.14c-2,.06-2.87,1.51-3.13,3.22a2.1,2.1,0,0,0,2.09,2.29C239.15,200.69,239.15,198.47,240,197.15Zm-73.63,10c2.63-.68,5-1.77,5.66-4.76.23-1-1.17-1.73-1.29-1.56-1.6,2.31-5.08,2.15-6.28,4.69C164,206.51,165.25,207.15,166.4,207.16Zm283.19,28.53c-1.07,1.68-5,.28-3.87,4.06.39,1.25,1,2.55,2.73,1.83C451.45,240.29,449.53,237.85,449.59,235.69Zm-151,222.14c-2.31,4.13.93,5.51,1.33,7.75.71-.4,1.93-.69,2-1.22C302.58,461.52,299.2,461.13,298.6,457.83Zm-14.35,52c-1.76-.57-3.11,0-3.42,2.06a1.32,1.32,0,0,0,1.83,1.53c1.37-.48,3.58,0,3.76-2.31C286.52,509.77,286,508.81,284.25,509.8Zm60.49-110.48c2.42-1.34.95-3.68.8-5.1s1.32-4.21-.77-4c-2.74.26.05,2.38-.06,3.72C344.57,395.62,343.74,397.44,344.74,399.32ZM183.26,106.64c-3.57.86-5.73,5.26-4.24,7.34a1.56,1.56,0,0,0,1.16.56,1,1,0,0,0,.92-1.36C179.83,110.56,181.57,108.9,183.26,106.64ZM334.9,371.16c-1-1.51.05-4.34-2.71-4.67-1.33-.16-3.15,1-2.63,2.1.74,1.6,2.47,2.86,4,3.92C334.33,373,335,372.21,334.9,371.16Zm-65.19,8.56a4.13,4.13,0,0,0,2.08-3.06,2,2,0,0,0-1.91-2.4c-1.34-.2-2.13.92-2.22,2.15A3.36,3.36,0,0,0,269.71,379.72ZM338.6,249.31c2.52-2.73,4.52-5,3.42-9.39C341.13,243.58,338.27,245.39,338.6,249.31Zm-200.88-85c-2.77,1.61-4,3.32-2.92,6.9C136.18,168.77,138.24,167.46,137.72,164.33Zm181,30.41c.3-1.35.24-3.14-1.12-3.36-2-.31-1.79,1.93-2.24,3.19-.51,1.42,0,2.93,1.52,3.11C318.93,197.92,318.22,195.84,318.74,194.74Zm146.57,79.34c.19-2.17-.85-4.5.44-6.69a1.08,1.08,0,0,0-.48-1.64,1,1,0,0,0-1.45.85C463.46,269.27,461.5,272.28,465.31,274.08Zm-187.4-45.35c.54,1.66,1.13,3.3,1.62,5,.28,1,.5,2,1.69,2a1.44,1.44,0,0,0,1.14-.7c.41-1.09.63-2.47-.53-3.09A15.84,15.84,0,0,1,277.91,228.73ZM241.49,247c2.09,1.62,3.29,4.09,6.37,3.3C245.35,245.93,245.35,245.93,241.49,247ZM352.75,108.7a2.79,2.79,0,0,0-2.43,2.71c-.05,2,1.79,2,3.2,2.21,1.24.18,1.74-.59,1.77-1.76C355.34,110.08,354.36,109.16,352.75,108.7ZM302.34,217.05c-3.21,3.2-1.63,5.37.45,7.49C300.42,222.34,304.3,219.75,302.34,217.05Zm11.89,32.88c-.89.23-2,.39-1.36,1.47s.2,3.36,2.57,2.9c.83-.16,1.79-.55,1.58-1.52A3.18,3.18,0,0,0,314.23,249.93ZM454.67,452.6a3.3,3.3,0,0,0-3-2.66c-.85-.06-1.86.46-1.17,1.37s.31,3.17,2.44,3.16C454.16,454.47,454.7,453.84,454.67,452.6Zm-9,16.11c1.55-1.63,3.34-3.19,1.9-5.72a1,1,0,0,0-1.63-.3C444.48,464.48,444.9,466.55,445.66,468.71Zm-166.3-262c.26-1.42-.33-2-1.5-2.05s-2.85-.33-3.08,1.42c-.18,1.43,1.3,1.66,2.3,2C278.55,208.67,279.06,207.65,279.36,206.69Zm52.27,169.7c-1.74-2.57-2.63-5-7.3-4C327.36,373.76,327.52,377,331.63,376.39Zm-22.85,148c1.18-.62,3.48.27,3.55-2.31,0-1.06-.34-1.42-1.43-.85-1.62.86-4.39-.7-5,1.88C305.61,524.2,307.43,524.53,308.78,524.42ZM211.17,209.88c0-.92-.62-2.09-1.18-1.8-1.32.69-2.85,1.46-3.31,3.09a1.28,1.28,0,0,0,1.24,1.69C209.94,212.92,210.54,211.35,211.17,209.88Zm-104.79,10c-2.8.5-3.11,2.49-3.21,4.45,0,.54,1,.86,1.65.54C107.08,223.75,106.83,221.93,106.38,219.87ZM389.27,396.92c.3,2.43-.07,4.88,2.42,6.33.27.16.89,1.26,1.35-.11.94-2.77-1.46-4-2.49-5.93C390.46,397,390,397.07,389.27,396.92ZM233.68,358c-1.9-1.69-3.38-2.59-5.3-2.07a1.45,1.45,0,0,0-.14,1.23C229.58,358.65,231.25,358.78,233.68,358ZM428,440.29c0-1,.86-2.7-1.45-2.57-1.27.07-2.31.74-2.15,2.13a3,3,0,0,0,2.37,2.86C428.77,443,428.27,441.57,428,440.29Zm70.43-319.92c1.42.82-.79,3.58,1.92,3.78.56,0,1.64-.75,1-1.18-1.84-1.19.4-3.94-1.89-4.54C498.71,118.22,498.27,119.34,498.46,120.37Zm-98,220.51c-.14,2.2.2,3.87,2.36,6.35C402.7,344.13,404,342,400.43,340.88ZM272.85,393c-2.12-1.67-2.69-4.32-5.46-3.45-.79.25-1.06,1.11-.68,2.05C267.83,394.38,269.92,393.81,272.85,393Zm141.76,39.06c.76,0,1.67-.51,1.51-2a2,2,0,0,0-2.3-2c-1.4.16-1.75,1.44-1.84,2.6C411.88,432,413,432,414.61,432.07ZM417,449.2c.94-1.28,1.39-2.31.45-3.36a1.29,1.29,0,0,0-1.14.22C415.78,447.07,415.43,448.16,417,449.2Zm157.75-80.31c-.09-.48-.15-1.06-.84-.91-.22,0-.55.5-.5.68.12.43.36,1,.69,1.15C574.75,370,574.63,369.31,574.71,368.89Zm-92.17-118c-.13-.26-.19-.63-.39-.72s-.5.12-.76.2c.11.26.17.64.37.74S482.26,251,482.54,250.91ZM369.39,522.6l-.82.75a5.85,5.85,0,0,0,1.24.33c.25,0,.5-.28.75-.43ZM367.61,526c.12-.28.32-.55.3-.79s-.36-.3-.55-.45c-.1.25-.3.51-.26.73S367.42,525.85,367.61,526Zm-66-24.79-.42,0,0-.2Zm224-180.14a5.14,5.14,0,0,0-.28.77c0,.08.2.2.3.31.16-.18.43-.36.43-.55S525.73,321.27,525.56,321.09Zm-204.92-1.77.21-.25-.29-.06Z"/><path class="cls-2" d="M659.77,274.66c5.5.47,8.53,4,11.69,8.18,2.21,3,6.35,4.49,9.65,6.62.64.41,1.54.26,1.57-.49.13-3.4,2.9-3,4.14-2,2,1.52,5.1,2.66,4.88,6.17-.07,1.07,0,2-1.49,2-4.69-.09-2.88,1.88-1,3.45a7.94,7.94,0,0,1,2.72,5.62c.18,1.45.17,3.51,2,3.5,2.11,0,1.5-2.09,1.61-3.49.07-.82.24-1.64.39-2.63,2.4,1.42.58,3.37.55,4.82-.17,7.46,3.28,14.58,1.94,22.13-.28,1.53-5.28,10.54-6.58,10.7s-2.59-1.15-1.69-2c2.08-2,.65-4,.61-6,0-.8-.05-1.94.43-2.36,3-2.62,6.6-4.07,3.18-9.78-1.42-2.37-1.87-1.41-3.32-2.05-6.78-2.95-4.9,1.34-4,4.44.79,2.57-1.24,4.11-2,5.79-1.52,3.41-.53,5.82.91,8.62s2.72,5.16,0,8.87c-2.22,3-6,5.72-6,10.32,0,.63-2.1.35-3.33,1.58-3.54,3.54,1.26,6,.69,9.23-.36,2-.75,3.3-2.26,4.18-1.83,1.05-4,1.37-3.25,4.56.36,1.42-1.58,1.88-2.94,2a2.63,2.63,0,0,1-2.92-2.11,31.1,31.1,0,0,1-.11-4.93c0-1.08.3-2.67-1.57-2.3-1.27.25-1.7,1.17-1.22,2.66a49.11,49.11,0,0,1,1.43,6.71,2.68,2.68,0,0,1-1.69,3.25c-1.89.57-1.66-1.2-2.29-2.27-.46-.77.16-4.6-3.29-2.06-.88.65-1-2.46-.46-3.42,1.29-2.37,2-3.93-1.68-4.37-2.23-.26-1.18-2.41-1.44-3.69-.81-4-5.06-6.11-7.75-3.16-1.42,1.54-2.08.5-3,.47-1.37,0-1-1.43-1.41-2.13-3-5.18,1.6-9.33,1.49-14.06-.07-3.15.4-6-3.22-7.79a7.56,7.56,0,0,1-4-6.44c-.08-1.48.17-3.06-1.83-3.59s-1.85-2-1.36-3.54c.93-3,1.92-5.91,2.65-8.93.6-2.51,1.53-5.07-1.08-7.36-1.12-1-1.21-2.88-.73-4.49,2.79-.18,2.23,1.93,2.7,3.38a2.44,2.44,0,0,0,2.19,1.8c1.32,0,1.53-1.14,1.31-2.18-.64-3.14,3-4.65,2.71-8.19-.19-2.47.52-5.07-.64-7.6-.43-.93-.34-2.33.63-2.62s2.27.19,3.38.45c1.32.31,1.22,1.3,1,2.35-.33,1.63-.49,3.29-.9,4.89s0,2.46,1.82,2.36c1.57-.08,2.83-.57,2.32-2.32-1.12-3.87.69-7,2.19-10.22.94-2,1.62-3.82-.24-6.12-2.27-2.79-.42-5.92.79-8.75.23-.52,1.33-1,1.63-.41a19.43,19.43,0,0,1,1.29,4.15c.2.82-3.18,1.5,0,2.61,2.21.77,3.45.45,4.07-1.83Zm20.94,74c1.51-.42,2.62-1.09,2.36-2.71a2.77,2.77,0,0,0-2.74-2.31c-1.09-.1-2.08.54-1.52,1.72S678.69,348.52,680.71,348.68Z"/><path class="cls-2" d="M660.76,183.22c.82-1.46-.52-4.68,4.23-2.61s7.47,6.27,12,8.26c2.26,1,4.49,3,2.62,6.43-.57,1-1,3.47,2,1.54,1-.68,2.23,1.11,2.27,2.51.08,3.09,1.78,5.47,3.2,8,1.93,3.41,1.27,5.93-1.83,8.1-1.55,1.09-1.06,3-.6,4.55.86,2.87.88,5.84,1.41,8.73,1,5.43-1.41,9.71-3.85,14.1-.77,1.39-1.64.48-2.45.17-1.87-.71-3.1-.72-3.41,1.83-.26,2.06-4.8,3-6.72,1.8-3.61-2.28-6-5.62-8.39-9-1.82-2.56-3.36-5.6-7.24-5.43-.13-3.4-3.74-5.43-3.66-8.79a21,21,0,0,0-4-12.8c-1.3-1.92-3.25-5.14,1.87-5.27.58,0,1-.39.82-.89-2.58-5.66,4.16-6.63,5.25-10.45a2,2,0,0,1,1.5-1.11c3.89-.3,4.34-1,3-4.92-.68-2.05-.69-2.19,1.73-2.42.74-.07.82-.28.79-.7A7.2,7.2,0,0,0,660.76,183.22Z"/><path class="cls-2" d="M590.29,380.2c3.59-1.18,6.89-2.92,9.71.71,1,1.32,2.16.69,3,0,3.1-2.59,6.63-.43,9.9-1,.41-.07.89.42,1.36.55,3,.82,2.18,5.36,5.7,5.73,2.5.27,5.17-1.62,7.92,1-2.26.13-4.06.56-4.46,3-.27,1.63-2.19,2-3.22,1.76-3.93-.82-4.85,3-7.21,4.45-.85.53,1.4,10.55,2.35,11a3.34,3.34,0,0,0,3.64-1c3.09-3.63,4.67-1,4.72,1.53.08,4.58,2.46,9,1.06,13.56-1,3.33.58,5.25,2.94,6.4,1.73.84,2.53,1.75,1.59,3.14s-2.39-.09-2.9-.68c-1.65-1.88-3-2.55-5.15-.64-.24.21-3.57,1.07-3.85-1.65-.1-1,.15-2.21-1.21-2.15-.59,0-1.27,1-1.67,1.68-.5.84-.62,1.9-1.13,2.73-.92,1.48-.83,4-3.11,4.1-1.82.08-1.73-2.18-2.65-3.26-.74-.85-1.67-2-2.63-2.13-4.33-.51-6.37-4.51-9.88-6.18a2.59,2.59,0,0,1-1.44-2.88c.08-1.48-.61-3.12-1.74-3.36-6.8-1.47-3.22-8.48-6.46-11.76.8-.76.21-2.8,1.76-2.65,5.31.53,7.39-4.09,10-7,1.52-1.71,3.68-3.53,4.57-6.18,1-3,.3-4.55-2.61-3.89C594.72,386.1,592.49,383.82,590.29,380.2Zm27.36,8.21-.32-.34a4.77,4.77,0,0,0-.36.76c0,.08.2.22.31.33Z"/><path class="cls-2" d="M518,500.62c.09-3.25-.56-6.53,1.94-9.46a2,2,0,0,0-1.79-3.41c-2.78.54-3.13-1.9-5.33-3.09,1.9,4.59.23,7.93-3,11.07,3.83.24,5.23,1.26,3,4.72-1.59,2.51-.66,4.59,3.14,5.35-2.2.91-3.79,3.34-5.08-.49-.44-1.31-1.66-.3-2.56-.31-2.46,0-3.53,2.63-6,2.8-1.73.12-3.36,4.44-5,1-.57-1.22-4.31-2.63-1.59-5.17a1.58,1.58,0,0,0-.54-1.15c-.78-.37-1.71-.41-2,.67-1.09,4.33-5,2.35-7.53,3.05-1.67.47-3.28-1.78-1.4-4.06.41-.5,1.9-.37,1.1-1.61s-1.85-.26-2.51.16a18.61,18.61,0,0,1-5.19,2.75c-1.23.32-2.34.4-2.76-1.16s.5-1.85,1.83-2.15c1.76-.4,3.41-1.28,5.13-1.85,4.52-1.51,4.53-1.49,1.4-4.75,1.64-1,3.94,1.09,5.31-1.29.52-.91,1.53.21,1.8.89,2.21,5.54,5.27,1.93,7,.14s3.18-3.57,5.86-4.07c2.93-.54,2.64-3.7,5.21-6.32-3.69.93-6.22.65-8.05,3.09-1,1.3-2.41,1.53-3.66-.1-1.05-1.36-1-3,.48-3.2,2-.27,2.82-6.21,5.93-1.4a1.17,1.17,0,0,0,.89.13c2.61-5.87,12.45-3.65,13.08-11.7.12-1.5,1.37-1.68,2.32-2.29,2.41-1.56,5.6-2.7,3.85-6.78-.09-.21.64-3,2.58-2.82,1.66.18,3,.61,1.54,3-.29.46-1,5.23,1.5,4.91a4.7,4.7,0,0,0,3.63-6.64c2.62,1.27,4.56,2.27,6.55,3.15,2.83,1.26,2.23,3.49.54,4.59-2.09,1.36-3.2,2.35-2.33,5s-1.84,2.72-3,2.65c-3.56-.23-5.28,2.17-6.21,4.61s1.41,4.14,3.76,6.14c-2.27,0-3.75.78-4.66,2.26-.41.67-.06,2.36-1.63,1-.51-.43-1.75-.91-.64-1.8,1.53-1.21.69-1.86-.36-2.62-.69-.5-1.46-1.08-2.21-.41-1,.86-.77,2.19-.58,3.28.92,5.2-.83,9.57-3.93,13.58Zm7.92-30.95c.13-1.47-.43-2.1-1.67-2s-3,.07-2.61,2c.31,1.7.11,2.84-1.51,3.66-1,.52-2.07,1.17-1.51,2.67a2.27,2.27,0,0,0,2.1,1.76c1.74.12,3.53-1,3.54-2.09C524.31,473.36,524.43,471.28,525.93,469.67Z"/><path class="cls-2" d="M473,70.12a11.61,11.61,0,0,0,.19,1.66c.54,1.49,3.46,1.24,2.7,3.56a2.69,2.69,0,0,1-1.88,1.39c-2.54.41-2.13-2.14-2.84-3.35-3.44-5.84-6.72-7.93-13.22-5.56-2.61.94-3.65.09-4.83-.9-3-2.5-5.44-2.6-7.24,1.13-.71,1.47-1.89,1.23-2,.3-.27-3.56-4.89-3.13-5.47-6.52-.29-1.73-2.65-1.26-3.81-1.5,1-5.95,5.29-6.18,9.73-4.93,3.84,1.08,8.76-2,11.65,3.11.44.76,2.3.2,1.74-1.64-.37-1.24-.79-2.46-1.29-4,8.29-.08,16.35-1.32,24.38,0,5.47.92,10,4.31,15,6.47,2.35,1,.92,4.69,1.48,7.12s-1.31,5.41,3.61,5.9c-3.26,2.29-5.5.75-6.38-.27-2.84-3.31-7.14-.69-10.13-3-.67-.53-1.23.8-1.45,1.92-.25,1.31,3.15.07,1.14,1.94a2,2,0,0,1-2.75.17C479.12,71.05,476,71.67,473,70.12Zm-20.7-10.75a2.37,2.37,0,0,0-2.71-2.16c-1.27.06-2.9.33-2.83,2a2.79,2.79,0,0,0,2.94,2.68C451.17,61.84,452,60.79,452.34,59.37Z"/><path class="cls-2" d="M536.55,142.55c-1.69-2.43-5.57-3.22-2.33-7.12,1.83-2.21-.76-2.88-2.37-3.68-6-2.93-6.49-3.5-7.61-8.77,3.59,5.44,6.84,0,10.33.91,1,.28.93-2,0-3.17-1.69-2.1-.89-3.72.54-5.71,2-2.82,2.57.25,3.7.68,2.17.84,3.58-.24,4.61-1.81s2-1.55,3.27-.67c1.65,1.16.71,2.29-.29,3.26-1.83,1.77.31,2.4.55,3.39,1.35,5.36,6.08,6.44,9.42,9.24,1,.85,1.29,1.83-.49,2.52-3.53,1.38-7.7,2.49-3.89,7.83.42.59-1,3.44-3.25,2.77-1.5-.45-3.11-.59-4.47-1.87C539.64,136,539.08,136.18,536.55,142.55Z"/><path class="cls-2" d="M355.08,57.73c1.3,2.53-.46,3.8-.55,5.85,1.88-.55,3.19-.71,3.6-3.18.94-5.59,9.13-8.22,14-5a11.28,11.28,0,0,0,6,2.06c2.5,0,2.94,1.32,1,3A9,9,0,0,0,376.47,64c-.66,1.6,1.29,4.11-1.16,4.78s-5.49,1.32-7.86.61c-7.78-2.35-15.21-4.25-22.29,1.91-1.33,1.15-4,.31-5.55,1.9-.06.06-1.93-.39-1.13-1.45,1.79-2.39.94-5.09,1.25-7.65.15-1.32,0-2.46,1.89-1,1.4,1,1.76-.56,1.38-1.4-1.35-3,1.59-3.32,2.85-4.15s2.87-.64,4.09,1.34C351.73,61.74,353.45,58.79,355.08,57.73Z"/><path class="cls-2" d="M410.48,212.49c-2.09-.88-4.05-1.72-5.09-3.7s-2.46-3-4.76-2.22c-2.59.88-3.86-.23-3.2-2.73s-.34-4.28-2.31-4.77c-5.49-1.37-5.3-5.85-5.95-9.91-.19-1.2-.58-2.83,1.43-3.1,1.59-.22,3.17,0,3.46,1.92.47,3.16,2.11,2.19,4.49,2.31a43.38,43.38,0,0,1,16.72,4.05c1.78.87,2.4,4,5.44,2.31.39-.22,1.69.34,1.28,1-1.23,2-2.61,3.68-2.9,6.35-.16,1.36-3.1,4.08-5.29.53-4.39,4.18-6.38-2.13-10.32-2.46C405.36,206.12,411.63,206.71,410.48,212.49Z"/><path class="cls-2" d="M273.61,557.15c-1.26,1.35-4.35-.4-4.57,2.76,0,.24-.9.72-1.15.6-5.19-2.54-12-2.17-15.09-8.47-.48-1-.44-2.93-1.74-2.47a4.89,4.89,0,0,0-2.89,3.7c-.09.54.48,1.19.76,1.79,1.4,3.07-2.5,2.44-3,4.27-.18.64-.87,0-1.06-.29-1.22-2.24.71-2.13,1.91-2.9.74-.47,1.42-2.5,1-3-3.13-4.32-.59-9-.89-13.75.67-.7,1.54.39,2.43.35-.26,6.36,5.95,3.43,8.58,5.89,3.07,2.89,6.33-1.25,9.79-1,1.71.12,4.07-1.9,4.73.89.72,3-2,1.53-3.32,1.67-1.57.17-2.14,1.51-1.6,2.46,1.09,1.92-.7,5.27,2.75,5.91C271.62,555.76,272.94,555.71,273.61,557.15Z"/><path class="cls-2" d="M120.76,410.09c-.28,1.92-.39,4-2.36,4.65a5,5,0,0,1-5.45-1.37c-2.86-3-5-14.88-3.82-18.67,1-3.06,4.19-1.62,5.77-3.51.43-.52.92,2.12,1.71,3C120.6,398.91,119.11,404.94,120.76,410.09Z"/><path class="cls-2" d="M301.28,70.78c-2.34-3.85.3-6.22,2.65-7.67,2.95-1.82,5.63-4.24,9.36-4.89,2.69-.47,4.79.24,6,2.18a3.7,3.7,0,0,1-1.24,5.24c-1,.63-1.5,1.31-1.19,2.42,1.12,4.11-1.32,6.57-4.56,7.44-3.42.92-3.88-2.58-5.4-4.81-.93-1.37,1.11-3.81-1.55-3.93C303.05,66.65,303.31,69.5,301.28,70.78Z"/><path class="cls-2" d="M270.05,578.82c1.59-2.55,2.9-4.19,5.4-2,1.87,1.63,7,.68,4.45,5.8a1.66,1.66,0,0,0,1.36,2.26c4.31.85,4.89,4.46,5.53,7.76.35,1.81,1.69,2.33,2.69,3.33,1.38,1.4,1.65,2.92.57,4.47-1.26,1.8-2.18,0-3.26-.46-2.22-1-4.85-1.31-6-4.17,1-.87,3-.32,3.28-2.14a3.24,3.24,0,0,0,0-1.85c-.54-1-1.33-.32-2.12-.11-3.16.89-7.7-2.52-6.72-5.57C276.89,581.09,274.15,579.82,270.05,578.82Z"/><path class="cls-2" d="M420.22,154.7c0,.64-1.52,1.37-.07,1.86a3.48,3.48,0,0,0,3.25-.54c1.1-.77,1.88-3.28,4-1.36.79.74,2.42,1.47,1.17,2.69-1.69,1.64-.83,6-3.8,5.35s-3.33,1.4-4.88,2.55-3,3.2-5.63,1.91c-2.33-1.15-2.3-3-2-5,.28-1.59-.63-2.88-.87-4.32-.52-3,3.41-8.45,6.23-8.77C418.75,148.92,420.28,152.21,420.22,154.7Z"/><path class="cls-2" d="M333.25,565.91c-2.61-1-5.11-1.07-7.35-2.33-2.5-1.4-4.93-2.91-8.19-1.15-2.43,1.31-4.64-.95-6.84-1.95-.63-.28-.72-1.41,0-1.48,1.82-.17,1-3.56,3.48-2.66,1.67.61,3.69,0,5.1,1.61.53.59,1.76,1.22,2.16.46,2.79-5.32,5.87-.51,7.81.37,2.85,1.3,5.05,2,7.79.46a4,4,0,0,1,4.62.58c.91.67,1.12,2.39.26,2.36C338.49,562.09,336.29,565.34,333.25,565.91Z"/><path class="cls-2" d="M484.93,571.82c2.25-2.11,4.71-3.47,2.44-7.14-.72-1.16.07-3.29,1.68-4.31,1.12-.72,2.54-1.74,2.28.91-.1,1-.63,2.1.58,2.56,1.43.54,2.49-.34,3.37-1.46,2.62-3.33,5.68-3.83,9.34-1.6,1.45.88,3.45,1.45,2.46,3.53-1.41,3-2.39-1.44-4.18-.19,0,1,2.4,2.8-.56,3.49C496.53,569,490.73,570.41,484.93,571.82Z"/><path class="cls-2" d="M188.87,462.94c-.74-3.73-3.5-2.1-5.49-1.9-2.66.28-.72,2.21-.86,3.42-.1,1,.88,2.62-1,2.65a2.59,2.59,0,0,1-2.81-2.84,52.69,52.69,0,0,0-.14-6.66c-.07-3-.54-5.46-3-7.34-.67-.51-1.3-1.42-.84-2.13a1.93,1.93,0,0,1,2.66-.43c3.34,2.56,7.17,3.52,11.23,4.19,2.08.34,3.47,1.73,2.19,4.37C189.9,458.16,191.1,460.63,188.87,462.94Z"/><path class="cls-2" d="M662.15,427.58c1-4.47,3.07-8.35-1.81-11.43-1.32-.84-.29-3.14.82-4.77,1.5-2.21,4.56-2.7,5-6.41,2.71,3.6.25,6.22.44,8.85.07.93-1.73,2.11.18,2.76,1.28.44,2.07-.56,2.52-1.76s-.55-3.63,1.83-3.28c2.9.42.54,2.64.87,4C673.92,423.44,667.21,424.48,662.15,427.58Z"/><path class="cls-2" d="M325.16,67.84c1-1.32,1.88-2.33,2.67-3.35s.64-3,2.57-2.4c2.6.78,0,1.9.05,2.87s.67,1.28,1.45,1.72c3.45,1.91,4,5.4.79,7.29-2.4,1.42-2.33,3.2-1.95,6-3.51-2.79-7.05,0-10.33-2.17,2.75-2,2.12-3.88-1.05-5.5,2.11-.6,3.3-2.21,5.06-1.55,1.39.52,2.95,2.86,4.08.57C329.76,68.81,326.22,69.39,325.16,67.84Z"/><path class="cls-2" d="M338.45,542.22c1.76-1.86,7.42-.22,4.4-5.5,1.65-.25,2.33-3.55,4.66-1.54,4.18,3.6,8.91,6.6,12.77,11.67-3.16-.91-5.74-1.82-8.39-2.32-1.28-.24-3-1.54-3.92,1.2-.65,2-2.65.82-2.81-.42C344.58,540.66,341.27,542.41,338.45,542.22Z"/><path class="cls-2" d="M271.57,84.36c-5.34-1.84-10.39-.06-15.42,1.41-1.41.41-2.6,0-3.89,0-.62,0-1.38.17-1.63-.67a1.63,1.63,0,0,1,.92-2.08c2.84-.47,4-3.39,6.57-4.28.88-.31,2.27-1.32,2.55-.68,2.48,5.67,3.77.69,5.39-.55,1-.78,2.13-2.51,2.33.37.17,2.45,1,1.69,2.39.93,1.2-.63,1.93-3.24,4-1.23,1.83,1.75.89,3.73.5,5.59C274.77,85.72,272.77,83.47,271.57,84.36Zm-12.76-1.69.25,0-.09-.38Z"/><path class="cls-2" d="M352.91,83c2.32,1,5.91.39,6.34,4.22.29,2.53-4.52,6.73-7.68,6.49s-6.55-.57-7.18-4.52C344,86.56,349,83.06,352.91,83Z"/><path class="cls-2" d="M296.38,610.57c1.58-1.72-3.65-2.3-.56-4.78,2.77-2.23,4.3-.1,6.09.74a17.05,17.05,0,0,1,7.85,7.56c.34.65,2.22,1.45.39,2.38-.95.48-1.45,2.27-3.27.93-1.61-1.19-3.56-2.31-4.27-4-1.35-3.15-3.58-3.28-6.29-2.93Z"/><path class="cls-2" d="M409.54,157.25c-4.14-3.35-6.26-6.42-3.89-10.84.61-1.16.32-2.17.14-3.34-.35-2.21.07-4.72,2.62-4.78,1.13,0,3.54-.38,4.13,3.69C413.43,148,408.47,151.37,409.54,157.25Z"/><path class="cls-2" d="M706.13,301.86c-2.51-1.66-2.34-4.95-5.83-5.38-1.63-.2.87-4.55-.16-7.19-.68-1.76,1.21-3.86.13-5.93-.4-.77.14-1.22.91-1.22s2-.47,2.43.95C705.4,289,706.67,295,706.13,301.86Z"/><path class="cls-2" d="M678.71,395.66c-1.09.07-2-.11-1.87-1.52a14,14,0,0,1,.32-1.94c.62-2.57-2.54-5.39.22-7.68,2.13-1.77,5.21.3,7.5-2.15,1.54,7.29-7,10.75-4.41,17.59-2-1.18-1.3-3-1.83-4.37.51,0,1.1.07.58-.73Z"/><path class="cls-2" d="M588.91,209.68c-3.47-.13-1.51-5.59-5.3-5.41,2.18-2.21.22-4.65.42-7a1.5,1.5,0,0,1,.81-1.12c4-1.1,5.06,3.31,8,4.39,1.32.48.48,2.38-.63,3.69s-3.08,2.22-2.4,4.48l.07-.08c-.77,0-1.06.39-1.1,1.08Z"/><path class="cls-2" d="M357.8,555c-2.76.2-5.81-1.27-8.85.26a1.68,1.68,0,0,1-2.5-.72c-.51-1.39.44-2.18,1.47-2.76a5.73,5.73,0,0,1,5.63-.31c2.58,1.23,4.72-.55,7.05-1.07,1.15-.26.16-4.16,2.61-1.52.89,1,.56,1.86.07,3.43C362.13,556,360.42,555.34,357.8,555Z"/><path class="cls-2" d="M515.48,423.88c3,2,7.45,2.41,9.72,6,1.44,2.29-1.12,3.63-2.45,4.72-2.29,1.86-4.58.24-4.94-1.86-.51-3-2.5-4.28-4.37-5.9-.64-.56-1.44-.85-.92-1.87S514,423.82,515.48,423.88Z"/><path class="cls-2" d="M505.89,527.46c-.88-5.08,3.13-7.18,6.43-8.32,3.9-1.35,2.21,3,3.26,5.25,1.27-1.71,2.37-3.2,3.49-4.68.81-1.07,2.16-1.58,3-.68,1.76,1.87-.61,1.39-1.3,1.86-1,.64-.79,1.73-1.1,2.64-.94,2.78-2.55,4.7-5.68,2.94s-5.26,1.14-7.95,1.17Z"/><path class="cls-2" d="M506.05,527.64c-.36,4-2.76,6.23-5.85,8.51-2.62,1.94-6,2.26-8.3,4.87-1,1.1-4,1.73-4.57-.25-.41-1.6,1.15-5.07,2.77-5.15,6.64-.35,11.27-4,15.79-8.16Z"/><path class="cls-2" d="M236.68,574.44a59.27,59.27,0,0,1,7.71,3.15c.8.44,3.55,1.61,1.61,3.21-1.78,1.48-3.43,4.7-6.63,2.8-2.67-1.58-3.69-4.64-5.19-7.14C233.12,574.7,235.05,574.48,236.68,574.44Z"/><path class="cls-2" d="M645.17,260.22c1.92,2.77,3.82,4.86,4.87,7.3.73,1.68-.81,3.45-2.15,4.62-1,.87-1.78-.11-2.82-.74-3.09-1.87-5.3-5.73-9.78-4.8a1.29,1.29,0,0,1-1.1-.63c-.11-.35.12-1.16.39-1.25C638.11,263.51,642.54,264.91,645.17,260.22Z"/><path class="cls-2" d="M396.09,64.74c5.46,3.17,2,7.74,1.85,11.54-.13,4-4.91,1.3-6.59,3.69-.23.32-2-.85-2.18-2.19s.51-1.84,1.74-1.79c2.63.11,3.65-.52,2.28-3.41-.44-.93-1-3.39,1.5-4S394.26,66,396.09,64.74Z"/><path class="cls-2" d="M598.22,432c3.34-1.06,2.57,4.09,5.45,3.34a4.56,4.56,0,0,1-1,3.2c-1.4,2.21-2.86.24-4.3.1a41.94,41.94,0,0,0-4.34-.26c-1.09,0-2.41.66-2.76-1a2.29,2.29,0,0,1,1.45-2.81C594.71,433.93,595.6,430.68,598.22,432Z"/><path class="cls-2" d="M498.41,443.71c-3.28-1.75-4.41-4.3-2.23-8,.72-1.22,1.51-2.51,1.14-4.19-.48-2.26,1.62-2.5,2.78-2.29.66.13,2.78.82,1.85,3.11C500.45,436,500.76,440.3,498.41,443.71Z"/><path class="cls-2" d="M701.75,268.66c-3.17-7.77-2.87-12.69,1.43-16.88.67,3,.84,5.85,2.39,8.31a2.44,2.44,0,0,1-.63,3.14C702.26,265.51,701.89,266.08,701.75,268.66Z"/><path class="cls-2" d="M285.43,545.63c-.41,1.42.69,2.75,1.37,1.48,2.7-5,3.88-.6,4.82.8s.36,3.42.48,5.12c.15,2-2,1.27-2.86.44-2.43-2.28-6.37-2.69-7.72-6.38-.24-.65-1.72-.83-2.82-1.31,2.47-2.24,4.56,1.05,6.7-.11Z"/><path class="cls-2" d="M477.49,525.59c-2.51-.5-4.49.1-5.15-2-.42-1.33.73-2.06,1.47-2.92,1.43-1.66,2.69-1.21,4.08.13,2.18,2.11,3-.89,4.53-1.4s2.74-1.76,4.15-2.58a1.31,1.31,0,0,1,1.24.27c.22.29.22,1.16,0,1.28C484.07,520.74,481,524.15,477.49,525.59Z"/><path class="cls-2" d="M641.9,416.71c-2.77-5.61-4.36-11.08,3.5-14.55C645.39,407.3,642.42,411.7,641.9,416.71Z"/><path class="cls-2" d="M642,371.44c.65-.74.34-3.79,2.48-.78,1.54,2.19,3.77,3.8,6.85,2.47,1.11-.48,2.66-.76,2.43,1.05-.2,1.46,2,2.94-.24,4.4-1.27.83-2.79,1.57-3.37.23-1.65-3.78-6.7-3.5-8.13-7.32Z"/><path class="cls-2" d="M438.91,526.08c-.59-1.65,0-3.51-1.88-4.52,6.15.82,6.28.74,5.35-4.91-.31-1.89.85-2.68,2-3.57,1-.76,1.78-.28,2.56.49,2,2-.78,2.15-1.19,3.21C444.38,520.43,443,524,438.91,526.08Z"/><path class="cls-2" d="M391.89,150.79c.05-.74-1.58-2,.68-2.19,2.71-.24,5.07-2.77,7.86-1.72,1.33.5.24,1.74-.71,2-2.71.82-3.81,2.32-2.82,5.16.55,1.59.25,3.19-1.71,3.38-2.53.24-1.51-1.93-1.21-2.76C394.83,152.39,389.64,153.66,391.89,150.79Z"/><path class="cls-2" d="M393.62,559.46c.7-1.39,1.73-3.11,2.85-2.21,2.83,2.25,7.2.27,9.35,3.75a1.67,1.67,0,0,1,.1,1.38c-.36.79-.94.37-1.59.2-2.2-.58-4.48-.87-6.68-1.46A33.29,33.29,0,0,1,393.62,559.46Z"/><path class="cls-2" d="M537.68,515.87c-1.4,6.9-8.46,3.72-12.75,6.65.63-5.39,4.84-4.82,7.76-5.2,2-.25,3.41-.51,4.44-2.21.07-.13.23-.2.34-.3Z"/><path class="cls-2" d="M632.85,346.85c.91-1.23-.92-4.09,2.33-3.93,1.36.07,3.63,0,3,2-.68,2.29,1.4,6.55-3.19,6.48C633,351.38,633.09,348.69,632.85,346.85Z"/><path class="cls-2" d="M624.07,438.73c.44-.84-.4-2.8,1.19-2.11,2.12.92,4.26-2,5.79.07,1.19,1.6-1,2-1.92,2.72a6,6,0,0,0-1.08,1c-.79,1-.08,3.8-2.28,2.86C624.73,442.82,624.59,440.25,624.07,438.73Z"/><path class="cls-2" d="M414.44,85.41c-1.63-1-4.4.11-4.82-2.47-.36-2.23,1.43-4,2.41-5.82.44-.84,1.37-.86,2.1-.15.51.49.85,1.11.11,1.65C411.05,81,414.14,82.93,414.44,85.41Z"/><path class="cls-2" d="M481,529.6c-3.26,5.9-3.87,6.14-11.51,4.48,3.1-3.58,7.89-2.63,11.55-4.52Z"/><path class="cls-2" d="M655.65,182.13c-1.51.09-6.66-7.11-6.19-8.66.14-.49.33-.82,1-.84,1.55,0,7.35,6.18,7.18,7.75A1.77,1.77,0,0,1,655.65,182.13Z"/><path class="cls-2" d="M514.27,434.25c-.8.48-1.94.08-2.32,1.49s3,3.85-.89,3.59c-.71-.05-5-.62-4-3.64.56-1.64,1.17-5.57,5-2.93C512.62,433.18,513.64,433,514.27,434.25Z"/><path class="cls-2" d="M440.3,367.61c2.09.7,2.69,1,3.32,1.11,4.68,1,2.12,4.32,2,6.79,0,.25-.79.75-1,.66a4.18,4.18,0,0,1-2.48-2.12C441.3,372.2,443.3,370.12,440.3,367.61Z"/><path class="cls-2" d="M386.14,180c-1.55,5-5.3,3.35-8.16,3.84a1.21,1.21,0,0,1-1.53-1.4,2.6,2.6,0,0,1,2.17-2.38C381,179.81,383.38,180,386.14,180Z"/><path class="cls-2" d="M527.39,550.93c.19,2.19-1.07,2.61-1.95,3.2-1.66,1.14-2.52,4.54-4.81,3.28-2-1.07-.11-3.93-.53-6.62C522.66,552.16,525,551.4,527.39,550.93Z"/><path class="cls-2" d="M503.45,539c1.41-1.54,2.55-3.29,4.14-4.35,1.29-.87,3.28-2,4.44.61,1,2.28-.76,3-2.19,3.5C507.91,539.49,505.84,540.18,503.45,539Z"/><path class="cls-2" d="M483.28,508.26c.63,2.31,1.06,3.64-.94,4.5-1.65.71-5,.49-2.65,4.12.48.75-1.19.63-1.73.39-1-.43-2.75-.3-1.74-2.46C477.62,511.77,480.79,511,483.28,508.26Z"/><path class="cls-2" d="M198.59,208.42c1.25,3.93-.8,6.88-1.72,9.82-.37,1.21-2.4.38-3.41-.48-1.18-1-1.09-2.23-.05-3.41C195,212.56,196.57,210.74,198.59,208.42Z"/><path class="cls-2" d="M426.64,58.42A5.53,5.53,0,0,0,421.91,60a2.86,2.86,0,0,1-3.63,0,1.37,1.37,0,0,1-.24-2.14c.93-.85,1.91-2,3.39-1.56S424.4,57.48,426.64,58.42Z"/><path class="cls-2" d="M439.54,70.57c-3.55.05-6.66,1.19-8.07-1.71-.59-1.22,1.71-2.39,3.33-2.84C438.6,65,437.71,68.5,439.54,70.57Z"/><path class="cls-2" d="M292,323.11c1.11-.26,1.51.45,1.49,1.32-.06,2.92-2.88,3.68-4.49,5.35-.54.56-1.32-.55-1.34-1.35C287.64,325.47,289.91,324.34,292,323.11Z"/><path class="cls-2" d="M499.42,275.58c2.62-.51,1.28,2.78,2,4.5s-1,2-2,1.85c-2.08-.23-4.07-1-3.69-3.67C495.9,277.06,496.05,275.25,499.42,275.58Z"/><path class="cls-2" d="M228.12,455.74c1.39,1.08,5,1.13,4.93,3.08-.06,2.18-3.55,1.52-5.48,2.12-2.38.75-1.79-1.65-2-2.88C225.22,456.47,225.8,455.43,228.12,455.74Z"/><path class="cls-2" d="M446.78,525.13c1.9.34,4.27.18,4.91,2.45.36,1.27-1.13,1.36-2.07.9-1.7-.83-4.81.86-5-2.53C444.48,524.38,445.87,525,446.78,525.13Z"/><path class="cls-2" d="M205.78,502.72c2.38.18,4.63.1,6,1.93.63.84,1.69,1.65.23,2.84-1.17,1-2,.82-2.83-.25C208,505.75,206.91,504.23,205.78,502.72Z"/><path class="cls-2" d="M482.89,115.12c-.47,1.37-1.39,3.16-2.46,2.72-1.22-.5-2.15-2.27-2.68-3.69-.2-.54,0-2.77,1.73-2.3A5.32,5.32,0,0,1,482.89,115.12Z"/><path class="cls-2" d="M429.17,316.63c-1.6.09-2.54-.76-2.15-1.73.83-2,1-5.34,3.25-5.65,3.31-.46,1.51,2.89,2,4.48C433.47,317.21,428.37,313.67,429.17,316.63Z"/><path class="cls-2" d="M513.48,121.64c-1.44-1.15-3.24-2.22-3.63-4.35-.1-.53-.58-2.62.94-2a17.23,17.23,0,0,1,5,3.9C516,119.37,515,121.17,513.48,121.64Z"/><path class="cls-2" d="M684.71,406.73a.43.43,0,0,0-.19.6c-.79.08-.91.63-.91,1.28l-1.56-.18c1.51-3.16.83-6.7,1.51-10.68C685.67,401.05,684.55,404,684.71,406.73Z"/><path class="cls-2" d="M684,377c-1.49,2-2.24,4.76-5,4.5-1.44-.14-1.19-2-.89-3C679.16,375,681.94,377.23,684,377Z"/><path class="cls-2" d="M408.49,562.05c1.85,1.12,1.24,2.8,2.11,3.81s3.51.89,1.89,3c-.76,1-2.19,0-3.24-.3-1.77-.48-2.32-1.63-1.48-3.43A15.84,15.84,0,0,0,408.49,562.05Z"/><path class="cls-2" d="M512.53,440.85c-1.95,1.79-3.06,5.13-6.51,3.82-1.81-.69-.28-2.05.05-2.88C507.67,437.77,510.39,441.55,512.53,440.85Z"/><path class="cls-2" d="M263.27,591.84c-3.37-.35-4.51-2.62-5.17-5.21-.22-.87.69-1,1.31-.87C262.44,586.66,262.71,589.26,263.27,591.84Z"/><path class="cls-2" d="M407.92,366.58c-1.21.94.3,3.64-2.12,3.72-1.36.05-2.65-1-1.68-2.62.76-1.25-1.11-3.76,1.64-3.8A2.11,2.11,0,0,1,407.92,366.58Z"/><path class="cls-2" d="M563.15,131.14c.58,2.29,1.12,4.43,4,4.35-2,.84-3.72,1.73-5.15,0C560.79,134.06,561.92,132.81,563.15,131.14Z"/><path class="cls-2" d="M241.07,561.82c-2.11,1.15-3.87,2.06-5.47-.16-.73-1-.53-2.23.35-2.57C238.24,558.2,239.51,559.91,241.07,561.82Z"/><path class="cls-2" d="M135.28,459.71c1.2,1.86,4.05,2.89,2.69,5.72-.39.82-1.31,1.52-1.91.94C134.09,464.52,134.52,462.11,135.28,459.71Z"/><path class="cls-2" d="M644.84,420.49c.23-2.16,2.11-1.4,3.43-1.65,1.54-.28,2.36.46,1.67,1.94-.34.74.34,3-1.48,2C647.24,422.18,644.54,423.64,644.84,420.49Z"/><path class="cls-2" d="M296.78,343.16c-.09,2.54,0,5-2.92,5.15-1.28.05-1.43-1.44-1.49-2.7C292.21,341.71,295.41,344.19,296.78,343.16Z"/><path class="cls-2" d="M206.5,291.7c4.42,0,4.5,3.11,4.91,6.75-3.63-1.35-4.69-3.77-4.87-6.8Z"/><path class="cls-2" d="M648.74,180.49c4.43,3.9.21,7.71,1.23,11.22,0,.14-.67.74-1,.7a1.92,1.92,0,0,1-1.62-1.6C646.44,187.35,648.25,184.36,648.74,180.49Z"/><path class="cls-2" d="M306,597.26c-1.85.29-3.44,2.41-5.48.59-.53-.48-.75-1.41-.16-1.67C302.35,595.28,304.2,596,306,597.26Z"/><path class="cls-2" d="M208,283.71c1.83.65,1.81,2.55,2.34,4,.42,1.12-.52,1.89-1.65,1.77-2.27-.24-2.1-2.15-2.26-3.74C206.35,284.66,206.62,283.77,208,283.71Z"/><path class="cls-2" d="M207.24,544.44a1.12,1.12,0,0,1-1.69-.21c-1.08-1.29-4,1.91-4-1.66,0-.55-.06-1.83.65-1.32C203.8,542.44,207.16,540.92,207.24,544.44Z"/><path class="cls-2" d="M372.5,548.74c-1.74-2.25-3.09-4-4.41-5.72-.43-.57-.65-1.21.28-1.49.51-.16,1.07-.76,1.59.19C371.05,543.7,373.52,545.1,372.5,548.74Z"/><path class="cls-2" d="M96.39,380.35c3.8,1.93,3.51,3.91,3.11,5.81-.13.65-1,.84-1.64.49C95.08,385.13,98.07,383.14,96.39,380.35Z"/><path class="cls-2" d="M501.74,99.94c-1.61,3.42-3.66,2.68-5.47,2.29-.37-.08-.93-1.33-.76-1.57C497.15,98.43,499.09,100.81,501.74,99.94Z"/><path class="cls-2" d="M440.09,493.33c1.16-2.06,1.18-4.84,3.86-6.53A8.24,8.24,0,0,1,440.09,493.33Z"/><path class="cls-2" d="M499.81,468.84c-.66-1.95-1.41-3.87.42-5.4.53-.43,1.4-.55,1.66.23C502.6,465.82,501.26,467.34,499.81,468.84Z"/><path class="cls-2" d="M597.47,85.45c-3,1.34-3.56-1.19-4.81-2.46-.76-.79-1-2-.09-2.58,1.33-.89,1.71.52,1.78,1.36C594.54,83.77,597,83.63,597.47,85.45Z"/><path class="cls-2" d="M422,177c.71-1-.71-3.08,1.26-3.21,1.75-.13,2.51,1.33,2.26,3.06-.18,1.21.21,3-1.74,3S421.77,178.49,422,177Z"/><path class="cls-2" d="M526.64,442.89c2.48,1.35,5.21,2.13,1.45,4.69Z"/><path class="cls-2" d="M386.41,570.47a1.68,1.68,0,0,1-1.74-1.85c-.1-1.6,1-1.87,2.16-1.89,1.4,0,1.32,1.12,1.33,2C388.19,569.92,387.65,570.59,386.41,570.47Z"/><path class="cls-2" d="M425.14,186.13a1.92,1.92,0,0,1-1.95,1.86c-1.42-.05-1.79-1.31-1.9-2.47s.65-1.51,1.56-1.51A2.18,2.18,0,0,1,425.14,186.13Z"/><path class="cls-2" d="M490.71,139.66c-.28.9-.81,1.79-1.61,1.58-1.14-.3-2.72-.56-2.71-2.19,0-.91,1-1.19,1.86-1.16A2.3,2.3,0,0,1,490.71,139.66Z"/><path class="cls-2" d="M213.41,283.4c-1.27-.11-1.56-1.08-1.62-2.08s.21-2.22,1.5-2a2.59,2.59,0,0,1,1.87,2.61C215.18,282.87,214.26,283.19,213.41,283.4Z"/><path class="cls-2" d="M451.83,502.84c-1.85,1.65-5.08,1.47-5.6,4.89C446,503.58,448.57,502.77,451.83,502.84Z"/><path class="cls-2" d="M393.13,376.79c4.22-.25,4.42,2.88,6.57,3.2C396.6,381.33,395.84,378.73,393.13,376.79Z"/><path class="cls-2" d="M415.94,311.94l5,4.06C416.52,315.89,416.52,315.89,415.94,311.94Z"/><path class="cls-2" d="M634.79,273.69c-.44-2.22.76-2.54,2.5-2.12a2.88,2.88,0,0,1,2.52,2.57c.1,1.07-.48,1.43-1.47,1-1.2-.48-2.37-1-3.56-1.49Z"/><path class="cls-2" d="M201,104.78c1.12-.06,1.67.23,1.64,1a2.57,2.57,0,0,1-2.49,2.5c-1,.17-1.59-.32-1.5-1.32C198.78,105.37,200.9,106.05,201,104.78Z"/><path class="cls-2" d="M386.93,369c1.69.63,2.34,1.7,1.69,3.34-.12.3-1,.67-1.08.57A3.11,3.11,0,0,1,386.93,369Z"/><path class="cls-2" d="M491.2,546.76c.23-2.25,2.62-2.33,3.71-3.72,1.24,1.64.36,2.07-1.21,2.39a11.54,11.54,0,0,0-2.57,1.26Z"/><path class="cls-2" d="M203.92,102.56c.09,1.09-.63,1.25-1.22,1.27a1.2,1.2,0,0,1-.93-.75,1.09,1.09,0,0,1,1.18-1.2C203.3,101.87,203.65,102.36,203.92,102.56Z"/><path class="cls-2" d="M497.1,258.79c-.32,1-.76,1.81-2,1.56-.13,0-.31-.56-.24-.63.62-.66,1.15-1.67,2.31-.83Z"/><path class="cls-2" d="M517.93,500.55c-.28.63.22,1.71-1,1.79a.49.49,0,0,1-.37-.28c-.19-1.15.86-1.07,1.46-1.44Z"/><path class="cls-2" d="M399.62,508.23c-.1,1-.62,1.56-1.59,1.5a1,1,0,0,1-1-1.3,1.29,1.29,0,0,1,1.3-1.2A1.11,1.11,0,0,1,399.62,508.23Z"/><path class="cls-2" d="M303.9,316.3c.23-.17.46-.47.68-.46a.67.67,0,0,1,.62,1,.79.79,0,0,1-.73.23C304.22,316.93,304.09,316.57,303.9,316.3Z"/><path class="cls-2" d="M630.52,330.53c-.24-.58-.58-1-.49-1.28a1.31,1.31,0,0,1,.9-.79.59.59,0,0,1,.63.89A8.37,8.37,0,0,1,630.52,330.53Z"/><path class="cls-2" d="M491.13,546.69l-1.82.62-.08-.42,2-.13Z"/><path class="cls-2" d="M390.37,379.53l-1.62-.26,1.54.32Z"/><path class="cls-2" d="M100.66,252.24l-.49.82c-.16-.26-.45-.52-.45-.79s.27-.55.43-.83Z"/><path class="cls-2" d="M230,92.39c.06-.63.15-1.32.95-1.31a1.18,1.18,0,0,1,.86.73c.15.82-.54,1-1.15,1.08A4.58,4.58,0,0,0,230,92.39Z"/><path class="cls-2" d="M492,256.62c.09.85-.36,1.05-1.08.91-.13,0-.25-.17-.37-.27l1.52-.56Z"/><path class="cls-2" d="M395.06,354.69l-.32.78c-.18-.15-.49-.29-.5-.44a2.09,2.09,0,0,1,.28-.79Z"/><path class="cls-2" d="M430.21,380.56l-1.28,0,.16-.6,1.07.7Z"/><path class="cls-2" d="M469.29,420.44c.75.45,1.18,1.28.52,1.82-.92.74-1.08-.39-1.39-1Z"/><path class="cls-2" d="M508.58,294.93a2.88,2.88,0,0,1-.45.55c-.09.06-.3,0-.44-.11-.45-.23-.45-.52,0-.65C508,294.65,508.26,294.84,508.58,294.93Z"/><path class="cls-2" d="M98.67,245.68l.56.7A3.27,3.27,0,0,1,99,246c-.08-.13-.15-.26-.22-.4Z"/><path class="cls-2" d="M393.48,356.86c.12,0,.26,0,.34,0s.18.26.14.33c-.22.45-.47.43-.65,0C393.28,357.11,393.42,357,393.48,356.86Z"/><path class="cls-2" d="M585.79,349.6l.53-.28c-.06.06-.12.16-.2.19a2.68,2.68,0,0,1-.41,0Z"/><path class="cls-2" d="M206.54,291.65l-.49-.42c.11,0,.27,0,.31,0a1.48,1.48,0,0,1,.14.42Z"/><polygon class="cls-2" points="481.03 529.56 481.16 529.48 480.99 529.6 481.03 529.56"/><polygon class="cls-2" points="285.4 545.67 285.5 545.51 285.43 545.63 285.4 545.67"/><path class="cls-2" d="M659.73,274.7l-.77-.39.5-.45c.11.26.21.53.31.8Z"/><path class="cls-2" d="M245.46,326.69c-.09.23-.14.62-.28.65-.51.12-.76-.17-.72-.69l-.05,0,1,0Z"/><polygon class="cls-2" points="296.32 610.51 296.21 610.74 296.38 610.57 296.32 610.51"/><path class="cls-2" d="M366.06,466.85c-1.7.29-3.43,2.19-3.66-1.57-.27-4.57,3.41-2.58,5.08-3.46,1.86-1,2.81,1.59,2.83,3C370.34,468.19,368.1,467.81,366.06,466.85Z"/><path class="cls-2" d="M371,470.82c1.31.14,2.26.76,2.23,2.14,0,1.22-.6,2.34-2,2.35a2.45,2.45,0,0,1-2.61-2.42C368.53,471.43,370,471.29,371,470.82Z"/><path class="cls-2" d="M470.05,439.62c-1.29,2-2.58,4.07-5.55,4.76-.35-4.6,1.93-5.48,5.59-4.71Z"/><path class="cls-2" d="M21.49,631.16c0,3,0,5.89.05,8.84.1,7.77,2.89,14.82,8,21.22,10.74,13.42,25.88,20.69,44.82,22.66a111.22,111.22,0,0,0,23.43-.2q5.63-.6,11.27-1c17-1.06,32.94-5.2,48.39-11.06,10.74-4.08,21.29-8.48,31.73-13.07,11.18-4.92,22.09-10.25,33-15.53,23.4-11.3,45.55-24.19,67.52-37.29,15.33-9.15,30.29-18.73,45.46-28.07,4.87-3,9.88-5.82,14.82-8.73,6.08-3.6,12.12-7.25,18.24-10.79,7.18-4.16,13.81-8.89,20.55-13.52,4-2.76,8.11-5.45,12.06-8.28,5.35-3.81,10.58-7.74,15.9-11.59,6.27-4.53,12.52-9.1,18.9-13.53,10.61-7.35,21.31-14.61,32-21.88,10.25-7,20.46-14,30.39-21.29,7.92-5.82,16.13-11.37,24.12-17.12,8.2-5.9,16.7-11.52,24.44-17.87,6.53-5.36,13.25-10.54,19.86-15.82,7.53-6,15.07-12,22.53-18.08,5.15-4.18,10.28-8.38,15.23-12.72,7-6.13,13.82-12.4,20.7-18.63,5.35-4.83,10.73-9.65,16-14.55s10.47-9.84,15.66-14.81c5.36-5.14,10.71-10.3,16-15.5,4.47-4.4,8.83-8.87,13.23-13.31,3.78-3.8,7.59-7.58,11.31-11.42,7.62-7.87,15.37-15.65,22.75-23.68Q731.72,261.69,743,248.4c11.27-13.26,22.89-26.31,33.18-40.12Q787,193.71,797,178.76a102.71,102.71,0,0,0,11-20.64c1.12-2.91,2-5.89,3-8.85,1.26-3.87,2.46-7.75,3.76-11.61a94.91,94.91,0,0,0,4.18-18.4,77.76,77.76,0,0,0,.61-9.52,39.38,39.38,0,0,0-3.89-16.54,38.22,38.22,0,0,0-13.12-15.3,108.28,108.28,0,0,0-16.1-9.49A58.08,58.08,0,0,0,775,64.16c-7-1.65-14-3.18-21.13-4.46a96.91,96.91,0,0,0-19.19-1.33A119.28,119.28,0,0,0,707,62.08a264.22,264.22,0,0,0-41,14.5c-6.33,2.8-12.77,5.42-19.19,8.06a31.69,31.69,0,0,1-4,1.06c1-1.38,2.7-2,4.23-2.81,13.44-6.75,26.84-13.58,40.42-20.13,16.5-8,33.32-15.42,50.52-22.25,1.13-.45,2.33-.79,3.49-1.18,1,2.22,1.59,2.58,3.83,2.26a27.74,27.74,0,0,0,3.26-.68c7.23-1.87,14.5-3.66,21.68-5.66,13.32-3.7,26.74-7.09,40.6-9,5.65-.79,11.35-1.44,17.06-1.83,4.87-.33,9.79-.24,14.69-.29a92.42,92.42,0,0,1,19.1,2,41.35,41.35,0,0,1,11.54,4.08c9.74,5.29,15.67,12.92,18.56,22.27,2.64,8.58,2.47,17.28.86,26a154,154,0,0,1-11,34.49,372.11,372.11,0,0,1-18.45,35.32q-8.72,15-18.4,29.48A530,530,0,0,1,807.45,227c-5.63,6.64-11.18,13.31-16.89,19.89-3.73,4.29-7.62,8.48-11.55,12.63-3.41,3.6-7.06,7-10.46,10.65a41.27,41.27,0,0,0-3.82,5.07,7.74,7.74,0,0,0-1.33,6.48,6.86,6.86,0,0,1-2.13,3.34q-5,5.37-10,10.74c-1.1,1.19-2.13,2.43-3.19,3.65-1.76,1.85-3.52,3.69-5.27,5.54-.94.87-1.92,1.71-2.8,2.62-7.91,8.11-15.75,16.27-23.71,24.35C685.9,362.8,653.87,392.47,621,421.5c-1.24,1.11-2.39,2.3-3.58,3.45l-.84.76,0,0c-1.24.95-2.52,1.87-3.69,2.86l-54.68,46.21c-.88.74-1.91,1.36-2.87,2a15.46,15.46,0,0,1-1.67-.15,16.19,16.19,0,0,0-11.1,2.28,36.47,36.47,0,0,0-3.65,2.4c-6.51,4.85-13,9.74-19.47,14.61-4.62,3.45-9.21,6.91-13.89,10.29-5,3.61-10.1,7.14-15.17,10.69-12.07,8.46-24.08,17-36.26,25.33Q432,557.45,409.52,572.41c-18.81,12.53-37.91,24.75-57.44,36.48q-17.13,10.29-34.4,20.42-19.55,11.4-39.28,22.57c-5.93,3.37-11.92,6.67-18,9.85q-17.69,9.27-35.49,18.36c-11.75,6-23.62,11.84-35.83,17.16-11.58,5-23.22,10-34.85,15-15.52,6.64-31.7,12-47.95,17.2-9.84,3.15-20,5.47-30.12,7.81A153.31,153.31,0,0,1,44.65,741a90,90,0,0,1-20.31-2.2,30.34,30.34,0,0,1-10.23-4c-6.3-4.06-10.64-9.27-12.29-15.92C.48,713.44-.68,708,.47,702.4a5.4,5.4,0,0,0,.07-1.06c0-6.88,1.34-13.62,2.85-20.35.52-2.32,1-4.64,1.49-7a5.8,5.8,0,0,0-1.47-5.66,8.35,8.35,0,0,1,1.13-4.78C7.28,657.69,10,651.8,12.9,646c1.92-3.89,4.08-7.7,6.22-11.51A33.73,33.73,0,0,1,21.49,631.16Z"/><path class="cls-4" d="M642.9,85.67l-.9.11Z"/><path class="cls-5" d="M814.72,93.25A38.16,38.16,0,0,0,801.61,78a108.39,108.39,0,0,0-16.11-9.49A57.15,57.15,0,0,0,774,64.22c-7-1.65-14-3.18-21.14-4.47a97.61,97.61,0,0,0-19.18-1.32,119.82,119.82,0,0,0-27.7,3.7,265,265,0,0,0-41,14.51c-6.32,2.8-12.76,5.42-19.19,8.06a33,33,0,0,1-4,1.06l.09,0-.9.12-10.24,5.21s-.09.74-.25,2.11l1.89,3c1.68,1.38,3.45,2.78,5.31,4.17q2.12,1.59,4.17,3a99.34,99.34,0,0,0,8.33,11.37c1,1.19,2,2.33,3,3.41q1.13,1.93,2.26,3.87,3.29,3.57,6.68,7.6c2.33,2.78,4.5,5.52,6.52,8.18a72.2,72.2,0,0,1,13.77-10.48c7-4.06,18.77-7.42,42.53-12,4.48-.87,9.09-1.35,13.66-1.81a48.26,48.26,0,0,1,13.3,1c7.69,1.37,10.95,6.42,11.3,11.58a30.11,30.11,0,0,1-1.35,9.8c-1.84,7-5.19,13.45-8.86,19.82a206.8,206.8,0,0,1-18,26.37c-4.08,5.08-8.28,10.1-12.48,15.11a8.11,8.11,0,0,1-3.51,3,37,37,0,0,1-2.53,3.93c-1.34,1.61-2.91,3.08-4.39,4.61L710.88,210l0,0a10.35,10.35,0,0,1-1,1.52Q698.22,223.82,686.52,236a14,14,0,0,1-1.51,1.21c-.74.84-1.43,1.74-2.25,2.53q-25.28,24.74-52.4,48c-.78.67-1.67,1.25-2.5,1.87-.92.88-1.79,1.8-2.77,2.64q-44.21,37.85-91.53,72.91c-.83.62-1.79,1.11-2.68,1.67l0,0-1.62,1.23c0,.16-.11.24-.3.23l-1.23.94c-1.1.91-2.15,1.85-3.3,2.71q-48,35.6-98.64,68.47c-1.09.71-2.33,1.26-3.5,1.88l-.22,0c0,.41-.38.55-.94.53,0,.52-.38.77-.93.95a33.37,33.37,0,0,1-2.75,2.11q-24.33,15.3-48.7,30.55c-1.11.7-2.35,1.24-3.53,1.85s-2.1,1.54-3.23,2.21q-31.49,18.83-64.07,36.24c-1.05.56-2.2,1-3.3,1.5-.89.56-1.74,1.18-2.68,1.67C272.65,530,253.09,539.72,233,548.61c-1.22.54-2.54.94-3.81,1.41-2.22,1-4.42,2.1-6.65,3.1a19.83,19.83,0,0,1-2.26.7c-1.43.68-2.81,1.43-4.29,2-4.23,1.71-8.49,3.35-12.74,5a10.54,10.54,0,0,1-4.72,1.07,6.71,6.71,0,0,1-3.43,2,271,271,0,0,1-37.79,10.75,98.85,98.85,0,0,1-20.78,2.25,43.68,43.68,0,0,1-9.5-1.22,16.4,16.4,0,0,1-7.12-3.55,10.62,10.62,0,0,1-3.85-7.23c-.7-6.73.82-13.16,3.58-19.42a161.75,161.75,0,0,1,11.79-21.15c1.13-1.77,2.29-3.52,3.46-5.27a2.68,2.68,0,0,0-.23-3.63c-.67-.75-1.39-1.48-2-2.27a19.8,19.8,0,0,1-1.24-2.19l-1-1.09a2.06,2.06,0,0,1-1.54-1.69l-1-1.1a2.06,2.06,0,0,1-1.56-1.69c-.11-2.73-1-4.83-2.4-5.23-.74-.21-1.79,0-1.94.46-2.19.5-3.42,2-4.71,3.37-2.67,2.88-5.31,5.78-8,8.67Q89.71,533.94,72,556.34c-7.11,9-14,18.22-20.79,27.45-4.79,6.51-9.39,13.14-13.81,19.83-5.37,8.14-10.48,16.4-15.66,24.63a18.86,18.86,0,0,0-1.25,3,39.54,39.54,0,0,0,.68,14.84,38.65,38.65,0,0,0,7.38,15.22C39.31,674.69,54.45,682,73.39,683.94a111.22,111.22,0,0,0,23.43-.2q5.61-.6,11.26-1c17-1.06,32.94-5.2,48.4-11.06,10.74-4.08,21.28-8.49,31.72-13.08,11.18-4.92,22.1-10.24,33.05-15.53,23.4-11.29,45.54-24.18,67.51-37.28,15.34-9.15,30.3-18.73,45.47-28.07,4.86-3,9.88-5.82,14.81-8.74,6.09-3.59,12.12-7.24,18.25-10.79,7.18-4.15,13.81-8.89,20.55-13.51,4-2.76,8.1-5.46,12.06-8.28,5.34-3.82,10.57-7.75,15.89-11.59,6.28-4.54,12.52-9.1,18.91-13.53,10.61-7.35,21.31-14.61,32-21.88,10.25-7,20.46-14,30.39-21.29,7.92-5.83,16.12-11.37,24.11-17.12,8.21-5.9,16.7-11.52,24.45-17.88,6.53-5.35,13.25-10.53,19.86-15.81q11.29-9,22.53-18.08c5.14-4.18,10.28-8.38,15.23-12.72,7-6.13,13.81-12.4,20.69-18.63,5.35-4.84,10.73-9.66,16-14.55s10.48-9.85,15.66-14.81q8.05-7.71,16-15.51c4.46-4.39,8.82-8.86,13.23-13.3,3.77-3.8,7.58-7.59,11.3-11.43,7.63-7.86,15.38-15.65,22.75-23.67,7.9-8.59,15.56-17.34,23.07-26.18,11.26-13.25,22.88-26.3,33.17-40.11Q786,193.77,796,178.82a103.53,103.53,0,0,0,11.05-20.64c1.11-2.92,2-5.89,3-8.85,1.27-3.87,2.46-7.75,3.76-11.61a94.94,94.94,0,0,0,4.19-18.4,77.75,77.75,0,0,0,.6-9.52A39.27,39.27,0,0,0,814.72,93.25Z"/></g></g></svg>